<svg width="1250" height="460" viewBox="0 0 1250 460" fill="none" xmlns="http://www.w3.org/2000/svg">
<g clip-path="url(#clip0_6703_13519)">
<path d="M1249.43 415.89H734.387V460.007H1249.43V415.89Z" fill="#1E1E1E"/>
<path d="M0 3.32861H129.894V43.796H52.8731V89.4158H113.041V129.024H52.8731V204.914H0V3.32861Z" fill="#1E1E1E"/>
<path d="M193.432 3.32739H249.927L315.427 204.913H261.447L248.77 165.036H186.892L175.069 204.913H127.277L193.432 3.32739ZM197.104 128.701H238.155L218.183 61.828H217.076L197.104 128.701V128.701Z" fill="#1E1E1E"/>
<path d="M338.216 3.32739H417.501C465.293 3.32739 489.189 22.8097 489.189 66.3363C489.189 93.9229 477.669 108.038 457.998 117.055V118.236L500.156 204.913H445.019L410.709 131.438H391.039V204.913H338.166V3.32739H338.216ZM410.458 97.5188C429.323 97.5188 436.618 87.9118 436.618 69.0199C436.618 50.1279 429.021 41.7017 409.603 41.7017H390.486V97.5188H410.458Z" fill="#1E1E1E"/>
<path d="M523.499 3.32739H594.332L628.641 124.837H629.748L664.108 3.32739H734.136V204.859H682.118V69.0199H681.011L643.08 204.913H606.255L568.574 68.6978H567.166V204.913H523.6V3.32739H523.499Z" fill="#1E1E1E"/>
<path d="M770.911 3.32739H901.358V43.7948H823.18V82.1691H884.203V121.778H823.18V164.392H903.873V204.859H770.86V3.32739H770.911Z" fill="#1E1E1E"/>
<path d="M935.366 3.32739H1014.65C1062.44 3.32739 1086.34 22.8097 1086.34 66.3363C1086.34 93.9229 1074.82 108.038 1055.15 117.055V118.236L1097.31 204.913H1042.17L1007.86 131.438H988.189V204.913H935.315V3.32739H935.366ZM1007.61 97.5188C1026.47 97.5188 1033.77 87.9118 1033.77 69.0199C1033.77 50.1279 1026.17 41.7017 1006.75 41.7017H987.635V97.5188H1007.61V97.5188Z" fill="#1E1E1E"/>
<path d="M1112.5 196.165V155.053C1129.35 161.655 1146.51 166.431 1168.44 166.431C1190.37 166.431 1197.67 159.508 1197.67 147.539C1197.67 135.571 1192.89 132.243 1174.63 128.325L1160.59 125.32C1130.51 119.309 1112.25 105.194 1112.25 62.9014C1112.25 24.7956 1134.48 -0.107422 1182.27 -0.107422C1212.36 -0.107422 1227 4.66923 1238.22 10.4119V50.9329C1224.99 46.1563 1208.69 41.326 1187.31 41.326C1170.15 41.326 1161.45 47.015 1161.45 58.7151C1161.45 69.2345 1167.08 73.4208 1183.68 77.0167L1197.72 79.7002C1231.17 86.6236 1249.44 100.685 1249.44 141.475C1249.44 184.679 1223.58 208.079 1174.63 208.079C1148.22 208.079 1125.98 203.893 1112.5 196.057V196.165Z" fill="#1E1E1E"/>
<path d="M0 258.422H70.8328L105.142 379.932H106.249L140.559 258.422H210.587V460.008H158.569V324.115H157.462L119.53 460.008H82.7054L45.0251 323.793H43.6165V460.008H0V258.422Z" fill="#1E1E1E"/>
<path d="M248.519 258.422H301.643V460.008H248.519V258.422Z" fill="#1E1E1E"/>
<path d="M339.374 258.422H396.473L457.496 371.237H458.351V258.422H503.326V460.008H453.018L385.506 334.312H384.399V460.008H339.424V258.422H339.374Z" fill="#1E1E1E"/>
<path d="M540.1 258.422H612.643C671.704 258.422 706.819 285.097 706.819 354.439V361.362C706.819 429.47 671.654 460.062 612.895 460.062H540.05V258.422H540.1ZM611.788 420.131C638.2 420.131 651.179 406.016 651.179 363.724V353.526C651.179 310.644 636.288 298.353 610.43 298.353H592.973V420.131H611.839H611.788Z" fill="#1E1E1E"/>
<mask id="path-13-outside-1_6703_13519" maskUnits="userSpaceOnUse" x="762" y="228" width="467" height="213" fill="black">
<rect fill="white" x="762" y="228" width="467" height="213"/>
<path d="M794.218 434.814C784.425 434.814 777.607 432.394 773.764 427.553C769.921 422.713 768 416.755 768 409.681C768 403.475 769.054 397.021 771.161 390.319C773.268 383.617 775.624 377.598 778.227 372.261L799.982 327.58H791.987C785.045 327.58 780.272 326.463 777.669 324.229C775.066 321.995 773.764 319.451 773.764 316.596C773.764 313.742 775.376 310.515 778.599 306.916C781.822 303.192 786.222 301.33 791.801 301.33H811.882L830.884 265.671C833.364 260.955 843.303 239.151 846.898 237.165C850.617 235.055 854.459 234 858.426 234C862.145 234 865.554 234.993 868.653 236.979C871.752 238.965 873.302 242.254 873.302 246.846C873.302 249.204 872.744 251.624 871.628 254.106C870.636 256.464 869.273 259.257 867.537 262.484C864.5 268.204 869.218 259.341 865.871 265.671C862.524 271.877 862.372 272.386 857.413 281.198L847.025 301.33H907.642C913.593 301.33 918.427 302.137 922.146 303.751C925.989 305.24 927.91 308.653 927.91 313.99C927.91 316.72 926.918 319.389 924.935 321.995C922.952 324.602 918.675 326.153 912.105 326.649H834.753L821.737 352.713L810.209 376.357C808.721 379.335 807.234 382.811 805.746 386.782C804.383 390.63 803.701 394.043 803.701 397.021C803.701 400.745 805.436 402.607 808.907 402.607C812.874 402.607 818.204 400.931 824.898 397.58C831.592 394.229 838.658 390.133 846.096 385.293C853.657 380.452 860.909 375.426 867.851 370.213C874.793 364.876 881.177 359.726 887.003 354.761C889.11 353.396 890.97 352.713 892.581 352.713C895.308 352.713 897.354 354.203 898.717 357.181C900.081 360.16 900.205 363.759 899.089 367.979C898.097 372.199 895.184 376.233 890.35 380.08C882.292 387.403 874.111 394.353 865.805 400.931C857.624 407.385 849.505 413.156 841.447 418.245C833.266 423.209 825.208 427.181 817.275 430.16C809.341 433.262 801.655 434.814 794.218 434.814Z"/>
<path d="M876.218 435C871.756 435 868.223 433.573 865.62 430.718C863.016 427.864 861.715 424.45 861.715 420.479C861.715 417.252 863.45 411.17 866.921 402.234C870.392 393.298 874.421 383.741 879.007 373.564C883.966 362.766 888.738 352.279 893.325 342.102C898.035 331.924 901.754 323.609 904.481 317.155C906.713 311.818 909.626 307.846 913.221 305.24C916.94 302.634 920.596 301.33 924.191 301.33C927.29 301.33 930.017 302.51 932.373 304.868C934.852 307.102 936.092 310.391 936.092 314.735C936.092 317.837 935.348 321.375 933.86 325.346C938.323 321.251 943.157 316.845 948.364 312.128C953.694 307.288 959.83 303.192 966.772 299.841C973.714 296.49 981.833 294.815 991.13 294.815C998.072 294.815 1004.15 296.614 1009.35 300.213C1014.56 303.813 1017.41 309.832 1017.91 318.272C1023.73 312.439 1030.49 307.102 1038.17 302.261C1045.86 297.297 1055.16 294.815 1066.06 294.815C1074.37 294.815 1081.62 296.738 1087.82 300.586C1094.02 304.309 1097.12 310.887 1097.12 320.32C1097.12 327.766 1095.38 334.841 1091.91 341.543C1088.56 348.245 1084.6 354.389 1080.01 359.974C1078.28 362.084 1075.61 365.187 1072.02 369.282C1068.54 373.378 1065.32 377.784 1062.35 382.5C1059.5 387.217 1058.07 391.623 1058.07 395.718C1058.07 398.449 1058.88 400.186 1060.49 400.931C1062.22 401.676 1064.45 402.048 1067.18 402.048C1072.39 402.048 1077.97 400.559 1083.92 397.58C1089.99 394.477 1095.94 390.692 1101.77 386.224C1107.72 381.756 1113.11 377.163 1117.94 372.447C1122.9 367.731 1126.93 363.697 1130.03 360.346C1131.52 358.733 1133.38 357.926 1135.61 357.926C1137.84 357.926 1139.82 358.919 1141.56 360.905C1143.42 362.89 1144.35 365.497 1144.35 368.724C1144.35 371.206 1143.6 373.936 1142.12 376.915C1140.63 379.894 1138.09 382.811 1134.49 385.665C1125.94 393.981 1116.89 401.924 1107.34 409.495C1097.92 416.942 1088.38 423.023 1078.71 427.739C1069.04 432.456 1059.5 434.814 1050.07 434.814C1040.9 434.814 1033.46 432.642 1027.76 428.298C1022.18 423.954 1019.39 417.066 1019.39 407.633C1019.39 399.193 1021.44 391.312 1025.53 383.99C1029.74 376.543 1034.45 369.655 1039.66 363.325C1044.99 356.871 1049.33 350.976 1052.68 345.639C1053.92 343.653 1054.91 341.791 1055.65 340.054C1056.4 338.192 1056.77 336.33 1056.77 334.469C1056.77 329.876 1054.6 327.58 1050.26 327.58C1042.95 327.58 1035.82 329.876 1028.88 334.469C1021.93 338.937 1015.55 344.646 1009.72 351.596C1003.65 358.671 998.258 365.931 993.548 373.378C988.961 380.825 984.746 387.589 980.904 393.67C978.548 398.014 976.131 403.475 973.652 410.053C971.173 416.507 968.136 422.278 964.541 427.367C961.07 432.456 956.607 435 951.153 435C947.93 435 944.707 433.945 941.484 431.835C938.385 429.725 936.711 427.057 936.463 423.83C936.463 415.763 938.943 407.137 943.901 397.952C948.86 388.768 954.562 379.646 961.008 370.585C967.578 361.525 973.156 353.21 977.743 345.639C978.982 343.653 979.974 341.791 980.718 340.054C981.461 338.192 981.833 336.33 981.833 334.469C981.833 329.876 979.664 327.58 975.325 327.58C968.012 327.58 960.884 329.876 953.942 334.469C947 338.937 940.616 344.646 934.79 351.596C928.716 358.671 923.324 365.931 918.613 373.378C914.026 380.825 909.812 387.589 905.969 393.67C903.614 398.014 901.196 403.475 898.717 410.053C896.238 416.507 893.201 422.278 889.606 427.367C886.135 432.456 881.673 435 876.218 435Z"/>
<path d="M1153.46 434.814C1140.44 434.814 1128.6 431.897 1117.94 426.064C1107.28 420.106 1100.46 410.736 1097.49 397.952C1097.24 396.711 1097.12 395.904 1097.12 395.532C1097.12 392.181 1098.29 389.326 1100.65 386.968C1103.01 384.486 1105.61 383.245 1108.46 383.245C1109.82 383.245 1111.31 383.493 1112.92 383.99C1114.66 384.486 1115.96 385.603 1116.83 387.341C1120.05 393.174 1125.57 397.89 1133.38 401.49C1141.31 404.965 1149.06 406.702 1156.62 406.702C1164.68 406.702 1171.68 405.151 1177.63 402.048C1183.7 398.945 1186.74 393.857 1186.74 386.782C1186.74 378.094 1184.26 370.399 1179.3 363.697C1174.47 356.995 1168.33 350.976 1160.9 345.639C1153.58 340.178 1146.21 335.151 1138.77 330.559C1138.15 330.187 1137.22 329.132 1135.98 327.394C1134.74 325.532 1134.12 323.671 1134.12 321.809C1134.12 320.32 1134.49 319.141 1135.24 318.272C1139.2 312.935 1144.28 307.722 1150.48 302.634C1156.68 297.545 1163.5 295.001 1170.94 295.001C1176.39 295.001 1180.85 296.366 1184.32 299.096C1187.92 301.703 1189.72 304.309 1189.72 306.916C1189.72 310.391 1188.1 313.68 1184.88 316.783C1181.66 319.761 1178.31 322.616 1174.84 325.346C1189.59 333.041 1201.31 342.846 1209.98 354.761C1218.66 366.552 1223 378.094 1223 389.389C1223 398.945 1219.53 407.137 1212.59 413.963C1205.77 420.665 1197.03 425.816 1186.37 429.415C1175.83 433.014 1164.86 434.814 1153.46 434.814Z"/>
</mask>
<path d="M794.218 434.814C784.425 434.814 777.607 432.394 773.764 427.553C769.921 422.713 768 416.755 768 409.681C768 403.475 769.054 397.021 771.161 390.319C773.268 383.617 775.624 377.598 778.227 372.261L799.982 327.58H791.987C785.045 327.58 780.272 326.463 777.669 324.229C775.066 321.995 773.764 319.451 773.764 316.596C773.764 313.742 775.376 310.515 778.599 306.916C781.822 303.192 786.222 301.33 791.801 301.33H811.882L830.884 265.671C833.364 260.955 843.303 239.151 846.898 237.165C850.617 235.055 854.459 234 858.426 234C862.145 234 865.554 234.993 868.653 236.979C871.752 238.965 873.302 242.254 873.302 246.846C873.302 249.204 872.744 251.624 871.628 254.106C870.636 256.464 869.273 259.257 867.537 262.484C864.5 268.204 869.218 259.341 865.871 265.671C862.524 271.877 862.372 272.386 857.413 281.198L847.025 301.33H907.642C913.593 301.33 918.427 302.137 922.146 303.751C925.989 305.24 927.91 308.653 927.91 313.99C927.91 316.72 926.918 319.389 924.935 321.995C922.952 324.602 918.675 326.153 912.105 326.649H834.753L821.737 352.713L810.209 376.357C808.721 379.335 807.234 382.811 805.746 386.782C804.383 390.63 803.701 394.043 803.701 397.021C803.701 400.745 805.436 402.607 808.907 402.607C812.874 402.607 818.204 400.931 824.898 397.58C831.592 394.229 838.658 390.133 846.096 385.293C853.657 380.452 860.909 375.426 867.851 370.213C874.793 364.876 881.177 359.726 887.003 354.761C889.11 353.396 890.97 352.713 892.581 352.713C895.308 352.713 897.354 354.203 898.717 357.181C900.081 360.16 900.205 363.759 899.089 367.979C898.097 372.199 895.184 376.233 890.35 380.08C882.292 387.403 874.111 394.353 865.805 400.931C857.624 407.385 849.505 413.156 841.447 418.245C833.266 423.209 825.208 427.181 817.275 430.16C809.341 433.262 801.655 434.814 794.218 434.814Z" fill="#1E1E1E"/>
<path d="M876.218 435C871.756 435 868.223 433.573 865.62 430.718C863.016 427.864 861.715 424.45 861.715 420.479C861.715 417.252 863.45 411.17 866.921 402.234C870.392 393.298 874.421 383.741 879.007 373.564C883.966 362.766 888.738 352.279 893.325 342.102C898.035 331.924 901.754 323.609 904.481 317.155C906.713 311.818 909.626 307.846 913.221 305.24C916.94 302.634 920.596 301.33 924.191 301.33C927.29 301.33 930.017 302.51 932.373 304.868C934.852 307.102 936.092 310.391 936.092 314.735C936.092 317.837 935.348 321.375 933.86 325.346C938.323 321.251 943.157 316.845 948.364 312.128C953.694 307.288 959.83 303.192 966.772 299.841C973.714 296.49 981.833 294.815 991.13 294.815C998.072 294.815 1004.15 296.614 1009.35 300.213C1014.56 303.813 1017.41 309.832 1017.91 318.272C1023.73 312.439 1030.49 307.102 1038.17 302.261C1045.86 297.297 1055.16 294.815 1066.06 294.815C1074.37 294.815 1081.62 296.738 1087.82 300.586C1094.02 304.309 1097.12 310.887 1097.12 320.32C1097.12 327.766 1095.38 334.841 1091.91 341.543C1088.56 348.245 1084.6 354.389 1080.01 359.974C1078.28 362.084 1075.61 365.187 1072.02 369.282C1068.54 373.378 1065.32 377.784 1062.35 382.5C1059.5 387.217 1058.07 391.623 1058.07 395.718C1058.07 398.449 1058.88 400.186 1060.49 400.931C1062.22 401.676 1064.45 402.048 1067.18 402.048C1072.39 402.048 1077.97 400.559 1083.92 397.58C1089.99 394.477 1095.94 390.692 1101.77 386.224C1107.72 381.756 1113.11 377.163 1117.94 372.447C1122.9 367.731 1126.93 363.697 1130.03 360.346C1131.52 358.733 1133.38 357.926 1135.61 357.926C1137.84 357.926 1139.82 358.919 1141.56 360.905C1143.42 362.89 1144.35 365.497 1144.35 368.724C1144.35 371.206 1143.6 373.936 1142.12 376.915C1140.63 379.894 1138.09 382.811 1134.49 385.665C1125.94 393.981 1116.89 401.924 1107.34 409.495C1097.92 416.942 1088.38 423.023 1078.71 427.739C1069.04 432.456 1059.5 434.814 1050.07 434.814C1040.9 434.814 1033.46 432.642 1027.76 428.298C1022.18 423.954 1019.39 417.066 1019.39 407.633C1019.39 399.193 1021.44 391.312 1025.53 383.99C1029.74 376.543 1034.45 369.655 1039.66 363.325C1044.99 356.871 1049.33 350.976 1052.68 345.639C1053.92 343.653 1054.91 341.791 1055.65 340.054C1056.4 338.192 1056.77 336.33 1056.77 334.469C1056.77 329.876 1054.6 327.58 1050.26 327.58C1042.95 327.58 1035.82 329.876 1028.88 334.469C1021.93 338.937 1015.55 344.646 1009.72 351.596C1003.65 358.671 998.258 365.931 993.548 373.378C988.961 380.825 984.746 387.589 980.904 393.67C978.548 398.014 976.131 403.475 973.652 410.053C971.173 416.507 968.136 422.278 964.541 427.367C961.07 432.456 956.607 435 951.153 435C947.93 435 944.707 433.945 941.484 431.835C938.385 429.725 936.711 427.057 936.463 423.83C936.463 415.763 938.943 407.137 943.901 397.952C948.86 388.768 954.562 379.646 961.008 370.585C967.578 361.525 973.156 353.21 977.743 345.639C978.982 343.653 979.974 341.791 980.718 340.054C981.461 338.192 981.833 336.33 981.833 334.469C981.833 329.876 979.664 327.58 975.325 327.58C968.012 327.58 960.884 329.876 953.942 334.469C947 338.937 940.616 344.646 934.79 351.596C928.716 358.671 923.324 365.931 918.613 373.378C914.026 380.825 909.812 387.589 905.969 393.67C903.614 398.014 901.196 403.475 898.717 410.053C896.238 416.507 893.201 422.278 889.606 427.367C886.135 432.456 881.673 435 876.218 435Z" fill="#1E1E1E"/>
<path d="M1153.46 434.814C1140.44 434.814 1128.6 431.897 1117.94 426.064C1107.28 420.106 1100.46 410.736 1097.49 397.952C1097.24 396.711 1097.12 395.904 1097.12 395.532C1097.12 392.181 1098.29 389.326 1100.65 386.968C1103.01 384.486 1105.61 383.245 1108.46 383.245C1109.82 383.245 1111.31 383.493 1112.92 383.99C1114.66 384.486 1115.96 385.603 1116.83 387.341C1120.05 393.174 1125.57 397.89 1133.38 401.49C1141.31 404.965 1149.06 406.702 1156.62 406.702C1164.68 406.702 1171.68 405.151 1177.63 402.048C1183.7 398.945 1186.74 393.857 1186.74 386.782C1186.74 378.094 1184.26 370.399 1179.3 363.697C1174.47 356.995 1168.33 350.976 1160.9 345.639C1153.58 340.178 1146.21 335.151 1138.77 330.559C1138.15 330.187 1137.22 329.132 1135.98 327.394C1134.74 325.532 1134.12 323.671 1134.12 321.809C1134.12 320.32 1134.49 319.141 1135.24 318.272C1139.2 312.935 1144.28 307.722 1150.48 302.634C1156.68 297.545 1163.5 295.001 1170.94 295.001C1176.39 295.001 1180.85 296.366 1184.32 299.096C1187.92 301.703 1189.72 304.309 1189.72 306.916C1189.72 310.391 1188.1 313.68 1184.88 316.783C1181.66 319.761 1178.31 322.616 1174.84 325.346C1189.59 333.041 1201.31 342.846 1209.98 354.761C1218.66 366.552 1223 378.094 1223 389.389C1223 398.945 1219.53 407.137 1212.59 413.963C1205.77 420.665 1197.03 425.816 1186.37 429.415C1175.83 433.014 1164.86 434.814 1153.46 434.814Z" fill="#1E1E1E"/>
<path d="M794.218 434.814C784.425 434.814 777.607 432.394 773.764 427.553C769.921 422.713 768 416.755 768 409.681C768 403.475 769.054 397.021 771.161 390.319C773.268 383.617 775.624 377.598 778.227 372.261L799.982 327.58H791.987C785.045 327.58 780.272 326.463 777.669 324.229C775.066 321.995 773.764 319.451 773.764 316.596C773.764 313.742 775.376 310.515 778.599 306.916C781.822 303.192 786.222 301.33 791.801 301.33H811.882L830.884 265.671C833.364 260.955 843.303 239.151 846.898 237.165C850.617 235.055 854.459 234 858.426 234C862.145 234 865.554 234.993 868.653 236.979C871.752 238.965 873.302 242.254 873.302 246.846C873.302 249.204 872.744 251.624 871.628 254.106C870.636 256.464 869.273 259.257 867.537 262.484C864.5 268.204 869.218 259.341 865.871 265.671C862.524 271.877 862.372 272.386 857.413 281.198L847.025 301.33H907.642C913.593 301.33 918.427 302.137 922.146 303.751C925.989 305.24 927.91 308.653 927.91 313.99C927.91 316.72 926.918 319.389 924.935 321.995C922.952 324.602 918.675 326.153 912.105 326.649H834.753L821.737 352.713L810.209 376.357C808.721 379.335 807.234 382.811 805.746 386.782C804.383 390.63 803.701 394.043 803.701 397.021C803.701 400.745 805.436 402.607 808.907 402.607C812.874 402.607 818.204 400.931 824.898 397.58C831.592 394.229 838.658 390.133 846.096 385.293C853.657 380.452 860.909 375.426 867.851 370.213C874.793 364.876 881.177 359.726 887.003 354.761C889.11 353.396 890.97 352.713 892.581 352.713C895.308 352.713 897.354 354.203 898.717 357.181C900.081 360.16 900.205 363.759 899.089 367.979C898.097 372.199 895.184 376.233 890.35 380.08C882.292 387.403 874.111 394.353 865.805 400.931C857.624 407.385 849.505 413.156 841.447 418.245C833.266 423.209 825.208 427.181 817.275 430.16C809.341 433.262 801.655 434.814 794.218 434.814Z" stroke="#1E1E1E" stroke-width="12" mask="url(#path-13-outside-1_6703_13519)"/>
<path d="M876.218 435C871.756 435 868.223 433.573 865.62 430.718C863.016 427.864 861.715 424.45 861.715 420.479C861.715 417.252 863.45 411.17 866.921 402.234C870.392 393.298 874.421 383.741 879.007 373.564C883.966 362.766 888.738 352.279 893.325 342.102C898.035 331.924 901.754 323.609 904.481 317.155C906.713 311.818 909.626 307.846 913.221 305.24C916.94 302.634 920.596 301.33 924.191 301.33C927.29 301.33 930.017 302.51 932.373 304.868C934.852 307.102 936.092 310.391 936.092 314.735C936.092 317.837 935.348 321.375 933.86 325.346C938.323 321.251 943.157 316.845 948.364 312.128C953.694 307.288 959.83 303.192 966.772 299.841C973.714 296.49 981.833 294.815 991.13 294.815C998.072 294.815 1004.15 296.614 1009.35 300.213C1014.56 303.813 1017.41 309.832 1017.91 318.272C1023.73 312.439 1030.49 307.102 1038.17 302.261C1045.86 297.297 1055.16 294.815 1066.06 294.815C1074.37 294.815 1081.62 296.738 1087.82 300.586C1094.02 304.309 1097.12 310.887 1097.12 320.32C1097.12 327.766 1095.38 334.841 1091.91 341.543C1088.56 348.245 1084.6 354.389 1080.01 359.974C1078.28 362.084 1075.61 365.187 1072.02 369.282C1068.54 373.378 1065.32 377.784 1062.35 382.5C1059.5 387.217 1058.07 391.623 1058.07 395.718C1058.07 398.449 1058.88 400.186 1060.49 400.931C1062.22 401.676 1064.45 402.048 1067.18 402.048C1072.39 402.048 1077.97 400.559 1083.92 397.58C1089.99 394.477 1095.94 390.692 1101.77 386.224C1107.72 381.756 1113.11 377.163 1117.94 372.447C1122.9 367.731 1126.93 363.697 1130.03 360.346C1131.52 358.733 1133.38 357.926 1135.61 357.926C1137.84 357.926 1139.82 358.919 1141.56 360.905C1143.42 362.89 1144.35 365.497 1144.35 368.724C1144.35 371.206 1143.6 373.936 1142.12 376.915C1140.63 379.894 1138.09 382.811 1134.49 385.665C1125.94 393.981 1116.89 401.924 1107.34 409.495C1097.92 416.942 1088.38 423.023 1078.71 427.739C1069.04 432.456 1059.5 434.814 1050.07 434.814C1040.9 434.814 1033.46 432.642 1027.76 428.298C1022.18 423.954 1019.39 417.066 1019.39 407.633C1019.39 399.193 1021.44 391.312 1025.53 383.99C1029.74 376.543 1034.45 369.655 1039.66 363.325C1044.99 356.871 1049.33 350.976 1052.68 345.639C1053.92 343.653 1054.91 341.791 1055.65 340.054C1056.4 338.192 1056.77 336.33 1056.77 334.469C1056.77 329.876 1054.6 327.58 1050.26 327.58C1042.95 327.58 1035.82 329.876 1028.88 334.469C1021.93 338.937 1015.55 344.646 1009.72 351.596C1003.65 358.671 998.258 365.931 993.548 373.378C988.961 380.825 984.746 387.589 980.904 393.67C978.548 398.014 976.131 403.475 973.652 410.053C971.173 416.507 968.136 422.278 964.541 427.367C961.07 432.456 956.607 435 951.153 435C947.93 435 944.707 433.945 941.484 431.835C938.385 429.725 936.711 427.057 936.463 423.83C936.463 415.763 938.943 407.137 943.901 397.952C948.86 388.768 954.562 379.646 961.008 370.585C967.578 361.525 973.156 353.21 977.743 345.639C978.982 343.653 979.974 341.791 980.718 340.054C981.461 338.192 981.833 336.33 981.833 334.469C981.833 329.876 979.664 327.58 975.325 327.58C968.012 327.58 960.884 329.876 953.942 334.469C947 338.937 940.616 344.646 934.79 351.596C928.716 358.671 923.324 365.931 918.613 373.378C914.026 380.825 909.812 387.589 905.969 393.67C903.614 398.014 901.196 403.475 898.717 410.053C896.238 416.507 893.201 422.278 889.606 427.367C886.135 432.456 881.673 435 876.218 435Z" stroke="#1E1E1E" stroke-width="12" mask="url(#path-13-outside-1_6703_13519)"/>
<path d="M1153.46 434.814C1140.44 434.814 1128.6 431.897 1117.94 426.064C1107.28 420.106 1100.46 410.736 1097.49 397.952C1097.24 396.711 1097.12 395.904 1097.12 395.532C1097.12 392.181 1098.29 389.326 1100.65 386.968C1103.01 384.486 1105.61 383.245 1108.46 383.245C1109.82 383.245 1111.31 383.493 1112.92 383.99C1114.66 384.486 1115.96 385.603 1116.83 387.341C1120.05 393.174 1125.57 397.89 1133.38 401.49C1141.31 404.965 1149.06 406.702 1156.62 406.702C1164.68 406.702 1171.68 405.151 1177.63 402.048C1183.7 398.945 1186.74 393.857 1186.74 386.782C1186.74 378.094 1184.26 370.399 1179.3 363.697C1174.47 356.995 1168.33 350.976 1160.9 345.639C1153.58 340.178 1146.21 335.151 1138.77 330.559C1138.15 330.187 1137.22 329.132 1135.98 327.394C1134.74 325.532 1134.12 323.671 1134.12 321.809C1134.12 320.32 1134.49 319.141 1135.24 318.272C1139.2 312.935 1144.28 307.722 1150.48 302.634C1156.68 297.545 1163.5 295.001 1170.94 295.001C1176.39 295.001 1180.85 296.366 1184.32 299.096C1187.92 301.703 1189.72 304.309 1189.72 306.916C1189.72 310.391 1188.1 313.68 1184.88 316.783C1181.66 319.761 1178.31 322.616 1174.84 325.346C1189.59 333.041 1201.31 342.846 1209.98 354.761C1218.66 366.552 1223 378.094 1223 389.389C1223 398.945 1219.53 407.137 1212.59 413.963C1205.77 420.665 1197.03 425.816 1186.37 429.415C1175.83 433.014 1164.86 434.814 1153.46 434.814Z" stroke="#1E1E1E" stroke-width="12" mask="url(#path-13-outside-1_6703_13519)"/>
</g>
<defs>
<clipPath id="clip0_6703_13519">
<rect width="1249.43" height="460.008" fill="white"/>
</clipPath>
</defs>
</svg>
