<svg width="1007" height="108" viewBox="0 0 1007 108" fill="none" xmlns="http://www.w3.org/2000/svg">
<path d="M1007 90.5664H776V105.566H1007V90.5664Z" fill="black"/>
<path d="M754.104 6.6355V105.277H740.548V97.5505C738.729 99.7705 736.341 101.716 733.405 103.391C729.263 105.755 724.373 106.916 718.773 106.916C712.611 106.916 707.003 105.346 701.976 102.2L701.97 102.196C697.023 99.0524 693.129 94.7024 690.286 89.1736C687.44 83.6387 686.024 77.5128 686.024 70.8152C686.024 64.1177 687.44 57.9916 690.286 52.4568C693.129 46.928 697.023 42.5779 701.97 39.4343L701.976 39.4304C707.003 36.2845 712.611 34.7156 718.773 34.7156C724.373 34.7156 729.263 35.8764 733.405 38.24C736.341 39.9151 738.729 41.86 740.548 44.0798V6.6355H754.104ZM719.783 47.3621C715.772 47.3621 712.222 48.3685 709.104 50.364C706.057 52.3617 703.67 55.1396 701.949 58.7292C700.226 62.3241 699.356 66.3468 699.355 70.8152C699.355 75.2838 700.226 79.3071 701.949 82.9021C703.67 86.4918 706.056 89.2697 709.104 91.2673L709.693 91.6296C712.667 93.3844 716.022 94.2683 719.783 94.2683C723.871 94.2683 727.455 93.2612 730.568 91.2703C733.781 89.1858 736.281 86.3979 738.073 82.8875C739.867 79.2957 740.772 75.2777 740.772 70.8152C740.772 66.3524 739.867 62.3772 738.077 58.8679L738.073 58.8601C736.281 55.2715 733.785 52.4891 730.584 50.4861L730.572 50.4792L730.562 50.4714C727.448 48.405 723.866 47.3621 719.783 47.3621Z" fill="black" stroke="black" stroke-width="2"/>
<path d="M653.019 34.7153C658.198 34.7154 662.834 35.9671 666.896 38.4927H666.896C671.029 41.0154 674.218 44.5931 676.464 49.1938L676.672 49.6206C678.783 54.0586 679.821 59.222 679.821 65.0825V105.277H666.267V67.188C666.267 60.6143 664.799 55.7283 662.011 52.3843L662.003 52.3755L661.996 52.3667C659.293 48.9694 655.521 47.2456 650.55 47.2456C647.1 47.2457 644.02 48.2683 641.277 50.3218L641.27 50.3267L641.263 50.3325C638.5 52.3276 636.285 55.0321 634.63 58.478L634.631 58.479C633.048 61.9299 632.254 65.6481 632.254 69.645V105.277H618.698V36.353H632.254V44.2339C633.924 42.1434 636.109 40.2348 638.788 38.5024L638.796 38.4976C642.797 35.9614 647.553 34.7153 653.019 34.7153Z" fill="black" stroke="black" stroke-width="2"/>
<path d="M607.358 36.353V105.394H593.803V36.353H607.358ZM600.524 5.46533C603.012 5.46535 605.107 6.33795 606.726 8.09521L607.034 8.4165C608.527 10.0483 609.266 12.0713 609.266 14.4214C609.266 16.928 608.427 19.0906 606.743 20.8462C605.115 22.5442 603.013 23.3774 600.524 23.3774C598.101 23.3774 596.013 22.5384 594.323 20.8647L594.305 20.8472L594.288 20.8276C592.687 19.0695 591.896 16.9129 591.896 14.4214C591.896 11.93 592.687 9.80065 594.306 8.11279C595.991 6.35558 598.084 5.46533 600.524 5.46533Z" fill="black" stroke="black" stroke-width="2"/>
<path d="M501.952 9.5603L502.236 10.0818L536.024 72.1169L569.812 10.0818L570.097 9.5603H582.013V105.277H568.232V39.0701L541.167 88.9587L540.883 89.4822H531.166L530.883 88.9587L503.816 39.0701V105.277H490.037V9.5603H501.952Z" fill="black" stroke="black" stroke-width="2"/>
<path d="M451.162 34.7153C456.429 34.7154 461.229 35.5903 465.55 37.3579L466.35 37.6831C470.29 39.3449 473.491 41.6222 475.92 44.5308C478.61 47.5841 480.049 51.1172 480.208 55.0972L480.25 56.1372H466.955L466.881 55.2173C466.691 52.8424 465.255 50.7949 462.23 49.1079C459.199 47.4171 455.413 46.5435 450.825 46.5435C446.311 46.5435 442.642 47.3772 439.767 48.9839C436.953 50.5981 435.782 52.4286 435.782 54.4351C435.782 56.9218 436.939 58.9215 439.449 60.4819H439.45C442.103 62.0837 447.119 63.4687 454.667 64.5601H454.668C464.068 65.8933 470.979 68.1861 475.23 71.5522C479.521 74.9495 481.667 79.5349 481.667 85.2065C481.667 89.6448 480.281 93.5405 477.507 96.8472C474.834 100.122 471.201 102.591 466.655 104.279L466.654 104.278C462.115 106.041 457.096 106.916 451.61 106.916C445.896 106.915 440.823 106.001 436.414 104.146V104.145C432.022 102.375 428.51 99.863 425.921 96.5903L425.919 96.5884C423.402 93.3891 421.983 89.7294 421.669 85.6343L421.586 84.5571H434.876L434.988 85.4292C435.316 87.9559 436.818 90.2224 439.713 92.2134C442.635 94.0953 446.682 95.0874 451.947 95.0874C456.839 95.0874 460.806 94.1725 463.905 92.4097C466.983 90.5817 468.337 88.4116 468.337 85.9087C468.337 83.5635 467.098 81.6348 464.266 80.1216L464.252 80.1147L464.239 80.1069C461.429 78.4951 456.363 77.1476 448.896 76.1353L448.891 76.1343C440.003 74.8775 433.333 72.6619 429.018 69.3892L429.008 69.3823L429.622 68.5923L429.008 69.3813C424.622 65.9717 422.451 61.1797 422.451 55.1372C422.451 51.0875 423.726 47.473 426.264 44.3306L426.269 44.3247L426.272 44.3188C428.869 41.201 432.351 38.8459 436.677 37.2349C440.995 35.5486 445.828 34.7153 451.162 34.7153Z" fill="black" stroke="black" stroke-width="2"/>
<path d="M420.241 49.936L418.811 49.2544C416.36 48.0863 413.337 47.479 409.705 47.479C405.623 47.479 401.958 48.5217 398.686 50.5991L398.681 50.603C395.468 52.6134 392.931 55.3279 391.066 58.7651L391.067 58.7661C389.276 62.1283 388.38 65.7497 388.38 69.645V105.277H374.824V36.353H388.38V44.4595C390.151 42.3188 392.494 40.3695 395.385 38.606C399.609 35.9965 404.659 34.7154 410.49 34.7153C414.211 34.7153 417.258 35.1087 419.58 35.9438L420.241 36.1821V49.936Z" fill="black" stroke="black" stroke-width="2"/>
<path d="M333.855 34.7153C340.162 34.7154 345.846 36.2817 350.878 39.4302H350.877C355.971 42.5705 359.906 46.9191 362.677 52.4517C365.526 57.9133 366.941 64.0417 366.941 70.8149C366.941 73.0092 366.867 74.703 366.708 75.8647L366.589 76.729H314.341C315.065 81.8702 317.099 86.0793 320.42 89.4067L320.762 89.7339C324.317 93.0664 328.661 94.7368 333.855 94.7368C337.975 94.7368 341.542 93.8709 344.587 92.1724C347.73 90.3828 349.795 88.1938 350.886 85.6333L351.145 85.0249H364.938L364.541 86.3188C362.676 92.3979 358.94 97.3353 353.385 101.12L353.386 101.121C347.816 104.993 341.292 106.916 333.855 106.916C327.548 106.916 321.83 105.349 316.727 102.204L316.721 102.2C311.702 99.0593 307.768 94.7507 304.922 89.2964L304.919 89.2905C302.072 83.7539 300.657 77.5885 300.657 70.8149C300.657 64.0417 302.072 57.9133 304.922 52.4517C307.767 46.9214 311.7 42.572 316.721 39.4302L316.727 39.4272C321.83 36.2823 327.548 34.7153 333.855 34.7153ZM333.855 46.894C328.415 46.894 323.964 48.6759 320.427 52.2173L320.42 52.2241C317.101 55.4781 315.063 59.6842 314.34 64.9009H353.47C352.681 59.6855 350.611 55.4787 347.291 52.2241L347.283 52.2173C343.746 48.676 339.296 46.8941 333.855 46.894Z" fill="black" stroke="black" stroke-width="2"/>
<path d="M269.803 34.7153C274.537 34.7154 278.764 35.9305 282.452 38.3794L282.803 38.605C286.399 40.9647 289.207 44.2767 291.234 48.5044C293.329 52.874 294.362 57.9011 294.362 63.561V105.277H280.807V65.5503C280.807 59.6794 279.527 55.2005 277.085 51.9995C274.669 48.8317 271.381 47.2457 267.11 47.2456C264.194 47.2456 261.565 48.1453 259.192 49.9644C256.805 51.7954 254.922 54.2994 253.559 57.5161C252.195 60.7334 251.506 64.3045 251.506 68.2417V105.277H237.951V66.0181C237.951 59.9031 236.667 55.3119 234.229 52.1167L234.223 52.1079C231.803 48.8633 228.516 47.2456 224.254 47.2456C221.337 47.2456 218.708 48.1454 216.336 49.9644C214.02 51.7978 212.134 54.3081 210.695 57.5337C209.336 60.7487 208.65 64.275 208.65 68.1245V105.277H195.095V36.353H208.65V43.6187C210.285 41.5368 212.229 39.7192 214.483 38.1704L214.8 37.9556C218.097 35.7724 222.205 34.7154 227.059 34.7153C231.958 34.7153 236.278 36.0167 239.979 38.644C243.094 40.8564 245.475 43.7668 247.125 47.3501C249.041 43.9397 251.66 41.1454 254.975 38.9771L255.358 38.73C259.501 36.0432 264.329 34.7153 269.803 34.7153Z" fill="black" stroke="black" stroke-width="2"/>
<path d="M190.417 49.936L188.986 49.2544C186.536 48.0863 183.513 47.479 179.881 47.479C175.798 47.479 172.134 48.5217 168.861 50.5991L168.856 50.603L168.325 49.7554L168.855 50.603C165.643 52.6134 163.107 55.328 161.242 58.7651L161.243 58.7661C159.452 62.1283 158.556 65.7497 158.556 69.645V105.277H145V36.353H158.556V44.4585C160.326 42.318 162.67 40.3693 165.561 38.606C169.785 35.9965 174.835 34.7154 180.666 34.7153C184.386 34.7153 187.433 35.1088 189.755 35.9438L190.417 36.1821V49.936Z" fill="black" stroke="black" stroke-width="2"/>
<path d="M98.3232 34.7153C103.923 34.7153 108.813 35.8761 112.955 38.2397C115.891 39.9149 118.279 41.8598 120.098 44.0796V36.353H133.653V105.277H120.098V97.5503C118.279 99.7703 115.891 101.716 112.955 103.391C108.813 105.755 103.923 106.916 98.3232 106.916C92.1609 106.915 86.5529 105.346 81.5254 102.2L81.5195 102.197C76.5728 99.0531 72.6788 94.7023 69.8359 89.1733C66.99 83.6384 65.5742 77.5125 65.5742 70.8149C65.5743 64.1176 66.9902 57.9923 69.8359 52.4575C72.6788 46.9286 76.5729 42.5778 81.5195 39.4341L81.5254 39.4302C86.5529 36.2843 92.1609 34.7154 98.3232 34.7153ZM99.333 47.3628C95.3214 47.3628 91.7715 48.3683 88.6533 50.3638C85.6063 52.3614 83.22 55.1394 81.499 58.729C79.7756 62.3238 78.9053 66.3466 78.9053 70.8149C78.9053 75.2836 79.7755 79.3069 81.499 82.9019C83.22 86.4915 85.6063 89.2694 88.6533 91.2671L89.2432 91.6294C92.2172 93.3842 95.5721 94.268 99.333 94.2681C103.42 94.2681 107.004 93.261 110.118 91.27C113.33 89.1855 115.831 86.3977 117.623 82.8872C119.417 79.2954 120.322 75.2774 120.322 70.8149C120.322 66.3522 119.417 62.3769 117.627 58.8677L117.623 58.8599C115.831 55.2712 113.335 52.4888 110.134 50.4858L110.122 50.479L110.111 50.4712C106.998 48.4047 103.416 47.3628 99.333 47.3628Z" fill="black" stroke="black" stroke-width="2"/>
<path d="M65.8252 9.5603V22.5583H14.7803V52.4968L59.8867 52.3826L60.8896 52.3796V65.3806H14.7803V105.277H1V9.5603H65.8252Z" fill="black" stroke="black" stroke-width="2"/>
<path d="M969.649 36.8496C972.059 36.8497 974.079 37.4518 975.669 38.6943C977.246 39.8363 978.182 41.0799 978.183 42.4395C978.183 44.0965 977.408 45.6244 975.961 47.0156L975.953 47.0225C974.751 48.1321 973.507 49.199 972.225 50.2285C978.279 53.492 983.127 57.6092 986.756 62.5859H986.755C990.51 67.6832 992.419 72.7155 992.419 77.6748C992.419 81.8946 990.878 85.522 987.815 88.5303C984.837 91.455 981.029 93.6915 976.41 95.249L976.409 95.248C971.85 96.8033 967.104 97.581 962.173 97.5811C956.528 97.5811 951.38 96.3174 946.741 93.7822L946.737 93.7793C942.045 91.16 939.047 87.0334 937.745 81.4463L937.743 81.4395L937.742 81.4316C937.639 80.9142 937.573 80.5171 937.573 80.2988C937.573 78.7356 938.129 77.3887 939.23 76.2871C940.31 75.1545 941.545 74.5498 942.925 74.5498C943.565 74.5498 944.248 74.6653 944.971 74.8867C945.852 75.1386 946.513 75.7107 946.941 76.5576L947.199 76.998C948.542 79.1739 950.723 80.977 953.788 82.3887C957.126 83.8482 960.37 84.5712 963.524 84.5713C966.907 84.5713 969.82 83.9213 972.281 82.6396L972.285 82.6377C973.513 82.0111 974.412 81.1966 975.006 80.2021C975.601 79.2065 975.91 77.999 975.91 76.5605C975.91 72.9514 974.88 69.7694 972.826 66.9961L972.823 66.9912C970.79 64.1762 968.205 61.6416 965.062 59.3896L965.056 59.3848C961.939 57.0601 958.795 54.9206 955.627 52.9668V52.9658C955.428 52.8451 955.223 52.6466 955.018 52.4141C954.803 52.1711 954.56 51.8582 954.289 51.4795L954.285 51.4727L954.28 51.4658C953.707 50.6052 953.401 49.7151 953.401 48.8027C953.401 48.0966 953.576 47.4758 953.978 46.9932C955.703 44.6746 957.907 42.4183 960.583 40.2236C963.316 37.9825 966.343 36.8496 969.649 36.8496Z" fill="black" stroke="black"/>
<path d="M924.79 36.7703C928.42 36.7703 931.613 37.6108 934.353 39.3074H934.354C937.201 41.0159 938.573 44.0221 938.573 48.1667C938.573 51.4293 937.811 54.5304 936.29 57.4636C934.933 60.1759 933.34 62.678 931.511 64.9695L931.142 65.4255C930.394 66.3334 929.249 67.6641 927.711 69.4148C926.244 71.1442 924.881 73.0054 923.622 74.9988C922.437 76.9584 921.87 78.7488 921.87 80.3787C921.87 81.4571 922.182 81.946 922.602 82.1462L922.858 82.2458C923.484 82.4647 924.282 82.5828 925.268 82.5828C927.398 82.5827 929.708 81.9745 932.202 80.7273C934.77 79.4168 937.288 77.8164 939.757 75.9255L939.761 75.9226C942.29 74.0254 944.581 72.0773 946.632 70.0789L946.637 70.074C948.753 68.0635 950.468 66.3483 951.783 64.9275C952.516 64.1337 953.446 63.7332 954.537 63.7332C955.657 63.7332 956.63 64.2369 957.446 65.1638L957.609 65.3464C958.397 66.2778 958.775 67.4583 958.775 68.8464C958.775 70.0063 958.427 71.2499 957.768 72.5691C957.093 73.9175 955.959 75.2072 954.401 76.448C950.732 80.0104 946.851 83.4141 942.758 86.657H942.757C938.702 89.858 934.589 92.4763 930.418 94.5085C926.224 96.552 922.066 97.5818 917.95 97.5818C913.948 97.5818 910.65 96.6347 908.103 94.696L908.099 94.6921C905.553 92.7121 904.326 89.598 904.326 85.4695C904.326 81.7789 905.223 78.3273 907.015 75.1238L907.017 75.1218C908.833 71.9163 910.864 68.9489 913.11 66.2214L913.942 65.2029C915.835 62.8541 917.401 60.6922 918.641 58.7175C919.159 57.8886 919.568 57.1181 919.874 56.406C920.169 55.6671 920.313 54.9367 920.313 54.2117C920.313 53.3011 920.097 52.7113 919.754 52.3484C919.416 51.9907 918.873 51.7683 918.029 51.7683C915.012 51.7684 912.057 52.7132 909.158 54.6287L909.153 54.6326C906.23 56.5116 903.537 58.9159 901.074 61.8503L901.07 61.8552C898.487 64.8602 896.195 67.9425 894.193 71.1023C892.237 74.2754 890.438 77.1588 888.797 79.7527C887.805 81.5805 886.782 83.8876 885.729 86.6794L885.728 86.6824C884.655 89.4713 883.337 91.9717 881.775 94.1814C880.211 96.4714 878.158 97.6609 875.637 97.6609C874.143 97.6609 872.671 97.1713 871.228 96.2273L871.22 96.2224C869.791 95.2509 868.974 93.9828 868.854 92.4275L868.854 92.408V92.3884C868.854 88.8381 869.946 85.0712 872.095 81.0955C874.226 77.1524 876.677 73.2378 879.445 69.3513L879.447 69.3474C882.251 65.4851 884.63 61.9444 886.583 58.7244L886.587 58.7185C887.107 57.8871 887.517 57.1141 887.823 56.4001C888.116 55.6633 888.261 54.9348 888.261 54.2117C888.261 53.3013 888.044 52.7114 887.701 52.3484C887.363 51.9907 886.82 51.7683 885.977 51.7683C882.959 51.7683 880.005 52.7131 877.105 54.6287L877.101 54.6326C874.177 56.5117 871.483 58.9158 869.021 61.8503L869.017 61.8552C866.433 64.8602 864.142 67.9426 862.141 71.1023C860.184 74.2754 858.385 77.1588 856.744 79.7527C855.753 81.5805 854.729 83.8875 853.676 86.6794L853.674 86.6824C852.601 89.4713 851.285 91.9718 849.723 94.1814C848.159 96.4713 846.105 97.6608 843.584 97.6609C841.559 97.6609 839.904 97.0085 838.681 95.6687C837.481 94.3543 836.88 92.7744 836.88 90.9568C836.88 90.1955 837.082 89.1469 837.456 87.8376C837.833 86.5182 838.395 84.8979 839.141 82.9812C840.629 79.1541 842.356 75.0634 844.321 70.7087L844.322 70.7048C846.443 66.0928 848.484 61.6131 850.445 57.2664L850.447 57.2625C852.461 52.9169 854.049 49.3698 855.213 46.6199C856.192 44.281 857.487 42.5001 859.118 41.3191L859.125 41.3142C860.777 40.1576 862.44 39.5544 864.104 39.5544C865.565 39.5545 866.848 40.1123 867.938 41.1931C869.133 42.2689 869.694 43.8286 869.694 45.781C869.694 46.6796 869.554 47.647 869.284 48.6824C870.8 47.298 872.407 45.8354 874.107 44.2966C876.425 42.1943 879.091 40.4185 882.101 38.9675C885.15 37.4972 888.701 36.7703 892.737 36.7703C895.798 36.7703 898.497 37.5649 900.815 39.1658C902.974 40.6563 904.21 43.0323 904.592 46.2019C906.773 44.1221 909.235 42.1959 911.977 40.4226L912.594 40.0281C915.975 37.8479 920.049 36.7703 924.79 36.7703Z" fill="black" stroke="black"/>
<path d="M841.675 0.581299C843.36 0.581299 844.912 1.0324 846.319 1.93286C847.825 2.89638 848.538 4.48532 848.538 6.56958C848.538 7.65409 848.281 8.75338 847.782 9.8645C847.35 10.8914 846.76 12.1003 846.013 13.4875C845.165 15.0774 844.026 17.224 842.595 19.927L842.593 19.9299C841.161 22.5822 839.383 25.7892 837.264 29.551L837.265 29.552L831.931 39.554H857.025C859.61 39.554 861.753 39.903 863.429 40.6292H863.428C864.343 40.9875 865.047 41.5831 865.515 42.4133C865.98 43.2395 866.195 44.2662 866.195 45.4622C866.195 46.7588 865.721 48.0031 864.82 49.1858C863.83 50.4851 861.798 51.1561 858.973 51.3694L858.953 51.3713H826.157L820.728 62.2297L815.798 72.3264L815.796 72.3313C815.169 73.5845 814.54 75.0523 813.908 76.7366C813.339 78.3417 813.064 79.739 813.064 80.9358C813.064 81.6623 813.235 82.114 813.487 82.384C813.733 82.6476 814.136 82.8215 814.792 82.8215C816.369 82.8215 818.563 82.1493 821.408 80.7268C824.252 79.3049 827.258 77.5656 830.427 75.5061L830.43 75.5042C833.654 73.4427 836.746 71.3016 839.705 69.0823C842.667 66.8079 845.389 64.6139 847.873 62.5002L847.898 62.4788L847.926 62.4612C848.866 61.8526 849.758 61.5062 850.583 61.5061C851.263 61.5061 851.878 61.6941 852.408 62.0793C852.932 62.4606 853.345 63.0146 853.662 63.7063C854.308 65.1147 854.348 66.779 853.851 68.6565L853.85 68.6555C853.389 70.5951 852.062 72.3969 849.958 74.0735C846.505 77.2071 843 80.1826 839.44 82.9983H839.439C835.927 85.7654 832.44 88.2419 828.978 90.426L828.97 90.4309C825.447 92.5658 821.973 94.277 818.547 95.5618L818.546 95.5608C815.105 96.904 811.759 97.5813 808.509 97.5813C804.257 97.5813 801.151 96.5342 799.368 94.2913C797.644 92.1223 796.794 89.4623 796.794 86.344C796.794 83.6357 797.254 80.8276 798.169 77.9221C799.076 75.0393 800.093 72.4439 801.219 70.1379L810.174 51.7688H807.554C804.569 51.7688 802.364 51.2968 801.104 50.217C799.905 49.1888 799.26 47.9714 799.26 46.5764C799.26 45.1746 800.045 43.6808 801.449 42.1125C802.936 40.3969 804.965 39.554 807.475 39.554H815.757L832.4 6.50317L832.404 6.49536C833.497 4.41949 834.857 2.9031 836.502 1.99536C838.16 1.0566 839.887 0.581368 841.675 0.581299Z" fill="black" stroke="black"/>
<path d="M969.648 36.7686C972.071 36.7686 974.11 37.3737 975.717 38.6289C977.3 39.7755 978.263 41.0408 978.263 42.4404C978.263 44.1251 977.475 45.6724 976.018 47.0742L975.962 47.1279L975.951 47.1328C974.795 48.1981 973.599 49.2238 972.369 50.2148C978.382 53.4737 983.204 57.5786 986.819 62.5361L987.167 63.0146C990.701 67.959 992.5 72.8489 992.5 77.6748C992.5 81.9167 990.951 85.5647 987.873 88.5879H987.872C985.07 91.339 981.539 93.4823 977.295 95.0254L977.289 95.0273L976.442 95.3242L976.438 95.3252C971.87 96.884 967.113 97.6621 962.173 97.6621C956.515 97.6621 951.354 96.3957 946.702 93.8535L946.64 93.8193L946.635 93.8145C943.978 92.3192 941.859 90.3358 940.286 87.8662L940.037 87.4746L940.409 87.1963C940.434 87.1781 940.451 87.1651 940.474 87.1484L940.905 86.8262L941.195 87.2803C942.681 89.6148 944.687 91.49 947.225 92.9062C951.705 95.354 956.684 96.5811 962.173 96.5811C966.997 96.581 971.635 95.8212 976.089 94.3018L976.091 94.3008C980.592 92.783 984.261 90.6181 987.114 87.8164C989.99 84.9921 991.419 81.6205 991.419 77.6748C991.419 72.9843 989.616 68.1545 985.949 63.1777L985.947 63.1758C982.287 58.1554 977.338 54.0143 971.088 50.7578L970.401 50.3994L971.01 49.9209C972.481 48.7646 973.901 47.556 975.268 46.2949C976.578 45.0352 977.182 43.7526 977.182 42.4404C977.182 41.5732 976.58 40.5897 975.082 39.5049L975.074 39.499L975.066 39.4922C973.689 38.4101 971.896 37.8496 969.648 37.8496C966.592 37.8497 963.786 38.8904 961.217 40.9971C958.591 43.1502 956.447 45.3485 954.779 47.5898L954.769 47.6045L954.758 47.6172C954.538 47.8733 954.4 48.2492 954.4 48.8027C954.4 49.4798 954.624 50.1795 955.109 50.9082C955.366 51.2671 955.585 51.547 955.767 51.7529C955.91 51.915 956.016 52.0144 956.087 52.0703L956.146 52.1123L956.151 52.1152C959.343 54.0835 962.507 56.238 965.645 58.5771H965.646C968.864 60.884 971.528 63.4917 973.63 66.4014L974.027 66.96C975.95 69.78 976.909 72.9859 976.909 76.5615C976.909 78.1453 976.568 79.5366 975.864 80.7148C975.16 81.8932 974.11 82.8267 972.742 83.5254L972.743 83.5264C970.114 84.8959 967.035 85.5713 963.524 85.5713C960.212 85.5713 956.829 84.811 953.382 83.3027L953.373 83.2988C951.756 82.5545 950.357 81.6929 949.176 80.7178L948.728 80.3477L949.161 79.96C949.173 79.9491 949.185 79.9384 949.195 79.9297C949.206 79.9206 949.215 79.9135 949.223 79.9062L949.542 79.6201L949.874 79.8926C950.969 80.7953 952.282 81.6047 953.82 82.3135C957.149 83.7693 960.383 84.4902 963.524 84.4902C966.895 84.4902 969.795 83.8421 972.241 82.5684L972.473 82.4463C973.574 81.8432 974.386 81.0788 974.936 80.1602C975.522 79.1794 975.828 77.9876 975.828 76.5615C975.828 72.969 974.804 69.8037 972.761 67.0449V67.0439L972.757 67.0391C970.729 64.2319 968.151 61.7034 965.015 59.4561L964.981 59.4316L964.976 59.4268C961.871 57.1125 958.741 54.9821 955.585 53.0361V53.0352C955.376 52.9082 955.164 52.7039 954.956 52.4688C954.739 52.2229 954.495 51.9069 954.224 51.5273L954.214 51.5137L954.213 51.5117C953.632 50.6403 953.319 49.7343 953.319 48.8027C953.319 48.0833 953.498 47.441 953.915 46.9395L954.245 46.5049C955.923 44.3345 958.02 42.2203 960.531 40.1611C963.278 37.9091 966.322 36.7687 969.648 36.7686ZM941.788 75.624C941.711 75.6843 941.629 75.7489 941.549 75.8115L941.503 75.8477L941.449 75.8721C940.936 76.1058 940.434 76.4722 939.946 76.9854L939.938 76.9941C939.895 77.0362 939.854 77.0806 939.808 77.1299L939.776 77.1631L939.74 77.1904C939.637 77.2672 939.534 77.3433 939.431 77.4189L938.747 76.7002C938.879 76.539 939.02 76.3821 939.172 76.2305L939.362 76.0381L939.369 76.0312C939.965 75.4513 940.609 75.0232 941.304 74.7627L941.788 75.624Z" fill="black" stroke="black"/>
<mask id="path-17-outside-1_6708_13555" maskUnits="userSpaceOnUse" x="836.299" y="36.189" width="124" height="63" fill="black">
<rect fill="white" x="836.299" y="36.189" width="124" height="63"/>
<path d="M904.746 85.4691C904.746 81.8496 905.624 78.4689 907.381 75.3282L907.722 74.7333C909.439 71.775 911.343 69.0265 913.433 66.4877L914.268 65.4657C916.168 63.1072 917.744 60.9322 918.995 58.9406C919.523 58.095 919.945 57.3033 920.262 56.5656C920.576 55.7797 920.732 54.995 920.732 54.2113C920.732 53.2418 920.503 52.5296 920.059 52.0599C919.615 51.591 918.944 51.3496 918.03 51.3496C914.919 51.3496 911.886 52.3246 908.928 54.2789L908.927 54.2797C905.965 56.1837 903.24 58.6175 900.753 61.5812V61.582C898.157 64.6015 895.853 67.7002 893.84 70.8782L893.84 70.8774C891.878 74.0588 890.076 76.9493 888.432 79.5476C887.428 81.3984 886.396 83.726 885.337 86.5317V86.5325C884.275 89.2948 882.972 91.7655 881.43 93.9453C879.933 96.1382 878.001 97.242 875.637 97.242C874.24 97.242 872.846 96.7855 871.456 95.8772L871.455 95.8764C870.113 94.9636 869.381 93.8024 869.272 92.3951L869.272 92.3887H869.272C869.272 88.9252 870.338 85.2265 872.463 81.2942C874.586 77.3674 877.027 73.4677 879.786 69.5944V69.5936C882.596 65.7243 884.98 62.1734 886.941 58.9413L886.941 58.9406C887.47 58.095 887.892 57.3033 888.208 56.5656C888.523 55.7797 888.679 54.995 888.679 54.2113C888.679 53.2418 888.45 52.5296 888.006 52.0599C887.562 51.591 886.891 51.3496 885.977 51.3496C882.866 51.3496 879.832 52.3246 876.874 54.2789L876.874 54.2797C873.912 56.1837 871.187 58.6175 868.7 61.5812V61.582C866.104 64.6015 863.8 67.7002 861.787 70.8782L861.786 70.8774C859.825 74.0588 858.023 76.9493 856.379 79.5476C855.374 81.3984 854.343 83.726 853.284 86.5317V86.5325C852.222 89.2948 850.919 91.7655 849.377 93.9453C847.88 96.1382 845.948 97.242 843.584 97.242C841.656 97.242 840.121 96.6256 838.99 95.3865C837.862 94.1515 837.299 92.6735 837.299 90.9571C837.299 90.256 837.487 89.253 837.859 87.9522C838.231 86.6498 838.789 85.0433 839.531 83.1331C839.69 82.7242 839.852 82.3121 840.017 81.8971C840.059 81.8633 840.102 81.83 840.144 81.7961C839.961 82.2553 839.783 82.7108 839.607 83.1625C838.122 86.9803 837.38 89.5785 837.38 90.9571C837.38 92.6539 837.937 94.112 839.05 95.3316C840.164 96.5511 841.675 97.1609 843.584 97.1609C845.917 97.1609 847.826 96.0739 849.31 93.8999C850.848 91.7259 852.147 89.2603 853.208 86.5031C854.268 83.6928 855.302 81.3597 856.31 79.5039C857.953 76.9057 859.756 74.0159 861.718 70.8344C863.733 67.653 866.04 64.551 868.638 61.5287C871.13 58.5593 873.861 56.1202 876.83 54.2113C879.799 52.2494 882.848 51.2685 885.977 51.2685C887.832 51.2685 888.76 52.2494 888.76 54.2113C888.76 55.0067 888.601 55.802 888.283 56.5974C887.965 57.3397 887.541 58.1351 887.011 58.9835C885.049 62.218 882.663 65.7706 879.852 69.6414C877.095 73.5121 874.656 77.4094 872.535 81.3332C870.414 85.257 869.354 88.9422 869.354 92.3887C869.46 93.7674 870.175 94.9074 871.501 95.8088C872.88 96.7102 874.258 97.1609 875.637 97.1609C877.97 97.1609 879.879 96.0739 881.364 93.8999C882.901 91.7259 884.2 89.2603 885.261 86.5031C886.321 83.6928 887.355 81.3597 888.363 79.5039C890.006 76.9057 891.809 74.0159 893.771 70.8344C895.786 67.653 898.093 64.551 900.691 61.5287C903.183 58.5593 905.914 56.1202 908.883 54.2113C911.852 52.2494 914.901 51.2685 918.03 51.2685C919.886 51.2685 920.814 52.2494 920.814 54.2113C920.814 55.0067 920.654 55.802 920.336 56.5974C920.018 57.3397 919.594 58.1351 919.064 58.9835C917.632 61.2635 915.776 63.7822 913.496 66.5394C911.269 69.2437 909.254 72.1865 907.451 75.368C905.702 78.4964 904.827 81.8634 904.827 85.4691C904.827 89.4989 906.02 92.4418 908.406 94.2976C910.845 96.1535 914.026 97.0814 917.95 97.0814C921.98 97.0814 926.063 96.0739 930.199 94.059C933.763 92.3225 937.288 90.1519 940.773 87.549C940.788 87.5718 940.802 87.5946 940.817 87.6174C937.329 90.2215 933.802 92.394 930.235 94.1322C926.089 96.1517 921.994 97.1625 917.95 97.1625C914.014 97.1625 910.813 96.2314 908.357 94.362H908.356C905.944 92.486 904.746 89.515 904.746 85.4691ZM921.37 80.3788C921.37 78.629 921.98 76.7466 923.2 74.7317C924.472 72.7168 925.851 70.8344 927.335 69.0846C928.873 67.3348 930.013 66.0092 930.756 65.1078C932.717 62.7217 934.414 60.097 935.846 57.2337C937.331 54.3704 938.073 51.348 938.073 48.1666C938.073 44.1367 936.747 41.3264 934.096 39.7357C931.445 38.092 928.343 37.2701 924.79 37.2701C920.124 37.2701 916.147 38.3306 912.86 40.4515C909.572 42.5195 906.683 44.7995 904.19 47.2917C903.978 43.686 902.759 41.1143 900.532 39.5766C898.305 38.0389 895.707 37.2701 892.737 37.2701C888.76 37.2701 885.287 37.9859 882.318 39.4176C879.349 40.8492 876.724 42.599 874.444 44.667C872.217 46.6819 870.149 48.5642 868.24 50.314C868.876 48.6173 869.194 47.1061 869.194 45.7805C869.194 43.9246 868.664 42.5195 867.604 41.5651C866.596 40.5576 865.43 40.0539 864.104 40.0539C863.275 40.0539 862.437 40.2165 861.592 40.5406C861.546 40.5289 861.498 40.5185 861.451 40.5072C862.342 40.1508 863.227 39.9727 864.104 39.9727C865.452 39.9727 866.637 40.4852 867.658 41.5046H867.659C868.741 42.4788 869.276 43.9091 869.276 45.7805C869.276 47.0376 868.99 48.4552 868.426 50.0341C870.268 48.3468 872.255 46.5371 874.389 44.6065C876.675 42.533 879.307 40.7792 882.283 39.3444C885.265 37.9065 888.751 37.189 892.737 37.189C895.721 37.189 898.336 37.9618 900.578 39.5098C902.795 41.0407 904.017 43.5803 904.259 47.1095C906.727 44.6615 909.579 42.4186 912.816 40.3823C916.119 38.2516 920.112 37.189 924.79 37.189C928.355 37.189 931.472 38.0135 934.137 39.6657C936.821 41.2756 938.154 44.118 938.154 48.1666C938.154 51.3607 937.408 54.3952 935.918 57.2695C934.484 60.1381 932.784 62.7685 930.818 65.1595C930.075 66.0619 928.935 67.3887 927.397 69.1387L927.396 69.1379C925.914 70.8844 924.539 72.7641 923.269 74.7754C922.055 76.7814 921.451 78.6485 921.451 80.3788C921.451 81.5326 921.793 82.2335 922.439 82.5318C923.168 82.8433 924.109 83.0019 925.268 83.0019V83.083C924.101 83.083 923.147 82.9239 922.404 82.6058C921.715 82.2876 921.37 81.5453 921.37 80.3788ZM939.83 76.3956C939.747 76.474 939.665 76.5553 939.584 76.6406C939.535 76.6894 939.488 76.7394 939.442 76.7893C937.148 78.4961 934.809 79.9581 932.426 81.1741C929.881 82.4467 927.495 83.083 925.268 83.083V83.0019C927.479 83.0019 929.852 82.3694 932.389 81.101C934.919 79.81 937.4 78.2414 939.83 76.3956ZM958.275 68.846C958.275 67.4674 957.877 66.3539 957.082 65.5055C956.34 64.6571 955.491 64.2329 954.537 64.2329C953.582 64.2329 952.787 64.5776 952.151 65.2669C950.825 66.6985 949.102 68.4218 946.981 70.4367C945.238 72.1352 943.324 73.7942 941.242 75.4173C941.107 75.4785 940.974 75.5468 940.843 75.6233C943.059 73.9161 945.087 72.1692 946.924 70.3787V70.3779C948.78 68.6155 950.33 67.0766 951.576 65.7616L952.091 65.2112C952.743 64.5051 953.56 64.1518 954.537 64.1518C955.518 64.1518 956.387 64.5888 957.141 65.4498H957.142C957.954 66.316 958.356 67.4508 958.356 68.846C958.356 69.9227 958.034 71.102 957.394 72.3822C956.751 73.6686 955.654 74.9232 954.111 76.1474C952.628 77.5866 951.11 78.9981 949.558 80.3851C949.537 80.3677 949.515 80.3501 949.494 80.3326C951.051 78.942 952.573 77.527 954.06 76.0838C955.597 74.8642 956.684 73.6182 957.321 72.3456C957.957 71.073 958.275 69.9065 958.275 68.846ZM853.907 50.8708C853.04 52.8179 852.038 55.0185 850.901 57.4723C850.129 59.1832 849.343 60.9141 848.547 62.666C848.506 62.6898 848.465 62.7149 848.424 62.74C849.237 60.9513 850.039 59.1848 850.827 57.4389V57.4381C851.958 54.9986 852.954 52.8092 853.817 50.8708H853.907Z"/>
</mask>
<path d="M904.746 85.4691C904.746 81.8496 905.624 78.4689 907.381 75.3282L907.722 74.7333C909.439 71.775 911.343 69.0265 913.433 66.4877L914.268 65.4657C916.168 63.1072 917.744 60.9322 918.995 58.9406C919.523 58.095 919.945 57.3033 920.262 56.5656C920.576 55.7797 920.732 54.995 920.732 54.2113C920.732 53.2418 920.503 52.5296 920.059 52.0599C919.615 51.591 918.944 51.3496 918.03 51.3496C914.919 51.3496 911.886 52.3246 908.928 54.2789L908.927 54.2797C905.965 56.1837 903.24 58.6175 900.753 61.5812V61.582C898.157 64.6015 895.853 67.7002 893.84 70.8782L893.84 70.8774C891.878 74.0588 890.076 76.9493 888.432 79.5476C887.428 81.3984 886.396 83.726 885.337 86.5317V86.5325C884.275 89.2948 882.972 91.7655 881.43 93.9453C879.933 96.1382 878.001 97.242 875.637 97.242C874.24 97.242 872.846 96.7855 871.456 95.8772L871.455 95.8764C870.113 94.9636 869.381 93.8024 869.272 92.3951L869.272 92.3887H869.272C869.272 88.9252 870.338 85.2265 872.463 81.2942C874.586 77.3674 877.027 73.4677 879.786 69.5944V69.5936C882.596 65.7243 884.98 62.1734 886.941 58.9413L886.941 58.9406C887.47 58.095 887.892 57.3033 888.208 56.5656C888.523 55.7797 888.679 54.995 888.679 54.2113C888.679 53.2418 888.45 52.5296 888.006 52.0599C887.562 51.591 886.891 51.3496 885.977 51.3496C882.866 51.3496 879.832 52.3246 876.874 54.2789L876.874 54.2797C873.912 56.1837 871.187 58.6175 868.7 61.5812V61.582C866.104 64.6015 863.8 67.7002 861.787 70.8782L861.786 70.8774C859.825 74.0588 858.023 76.9493 856.379 79.5476C855.374 81.3984 854.343 83.726 853.284 86.5317V86.5325C852.222 89.2948 850.919 91.7655 849.377 93.9453C847.88 96.1382 845.948 97.242 843.584 97.242C841.656 97.242 840.121 96.6256 838.99 95.3865C837.862 94.1515 837.299 92.6735 837.299 90.9571C837.299 90.256 837.487 89.253 837.859 87.9522C838.231 86.6498 838.789 85.0433 839.531 83.1331C839.69 82.7242 839.852 82.3121 840.017 81.8971C840.059 81.8633 840.102 81.83 840.144 81.7961C839.961 82.2553 839.783 82.7108 839.607 83.1625C838.122 86.9803 837.38 89.5785 837.38 90.9571C837.38 92.6539 837.937 94.112 839.05 95.3316C840.164 96.5511 841.675 97.1609 843.584 97.1609C845.917 97.1609 847.826 96.0739 849.31 93.8999C850.848 91.7259 852.147 89.2603 853.208 86.5031C854.268 83.6928 855.302 81.3597 856.31 79.5039C857.953 76.9057 859.756 74.0159 861.718 70.8344C863.733 67.653 866.04 64.551 868.638 61.5287C871.13 58.5593 873.861 56.1202 876.83 54.2113C879.799 52.2494 882.848 51.2685 885.977 51.2685C887.832 51.2685 888.76 52.2494 888.76 54.2113C888.76 55.0067 888.601 55.802 888.283 56.5974C887.965 57.3397 887.541 58.1351 887.011 58.9835C885.049 62.218 882.663 65.7706 879.852 69.6414C877.095 73.5121 874.656 77.4094 872.535 81.3332C870.414 85.257 869.354 88.9422 869.354 92.3887C869.46 93.7674 870.175 94.9074 871.501 95.8088C872.88 96.7102 874.258 97.1609 875.637 97.1609C877.97 97.1609 879.879 96.0739 881.364 93.8999C882.901 91.7259 884.2 89.2603 885.261 86.5031C886.321 83.6928 887.355 81.3597 888.363 79.5039C890.006 76.9057 891.809 74.0159 893.771 70.8344C895.786 67.653 898.093 64.551 900.691 61.5287C903.183 58.5593 905.914 56.1202 908.883 54.2113C911.852 52.2494 914.901 51.2685 918.03 51.2685C919.886 51.2685 920.814 52.2494 920.814 54.2113C920.814 55.0067 920.654 55.802 920.336 56.5974C920.018 57.3397 919.594 58.1351 919.064 58.9835C917.632 61.2635 915.776 63.7822 913.496 66.5394C911.269 69.2437 909.254 72.1865 907.451 75.368C905.702 78.4964 904.827 81.8634 904.827 85.4691C904.827 89.4989 906.02 92.4418 908.406 94.2976C910.845 96.1535 914.026 97.0814 917.95 97.0814C921.98 97.0814 926.063 96.0739 930.199 94.059C933.763 92.3225 937.288 90.1519 940.773 87.549C940.788 87.5718 940.802 87.5946 940.817 87.6174C937.329 90.2215 933.802 92.394 930.235 94.1322C926.089 96.1517 921.994 97.1625 917.95 97.1625C914.014 97.1625 910.813 96.2314 908.357 94.362H908.356C905.944 92.486 904.746 89.515 904.746 85.4691ZM921.37 80.3788C921.37 78.629 921.98 76.7466 923.2 74.7317C924.472 72.7168 925.851 70.8344 927.335 69.0846C928.873 67.3348 930.013 66.0092 930.756 65.1078C932.717 62.7217 934.414 60.097 935.846 57.2337C937.331 54.3704 938.073 51.348 938.073 48.1666C938.073 44.1367 936.747 41.3264 934.096 39.7357C931.445 38.092 928.343 37.2701 924.79 37.2701C920.124 37.2701 916.147 38.3306 912.86 40.4515C909.572 42.5195 906.683 44.7995 904.19 47.2917C903.978 43.686 902.759 41.1143 900.532 39.5766C898.305 38.0389 895.707 37.2701 892.737 37.2701C888.76 37.2701 885.287 37.9859 882.318 39.4176C879.349 40.8492 876.724 42.599 874.444 44.667C872.217 46.6819 870.149 48.5642 868.24 50.314C868.876 48.6173 869.194 47.1061 869.194 45.7805C869.194 43.9246 868.664 42.5195 867.604 41.5651C866.596 40.5576 865.43 40.0539 864.104 40.0539C863.275 40.0539 862.437 40.2165 861.592 40.5406C861.546 40.5289 861.498 40.5185 861.451 40.5072C862.342 40.1508 863.227 39.9727 864.104 39.9727C865.452 39.9727 866.637 40.4852 867.658 41.5046H867.659C868.741 42.4788 869.276 43.9091 869.276 45.7805C869.276 47.0376 868.99 48.4552 868.426 50.0341C870.268 48.3468 872.255 46.5371 874.389 44.6065C876.675 42.533 879.307 40.7792 882.283 39.3444C885.265 37.9065 888.751 37.189 892.737 37.189C895.721 37.189 898.336 37.9618 900.578 39.5098C902.795 41.0407 904.017 43.5803 904.259 47.1095C906.727 44.6615 909.579 42.4186 912.816 40.3823C916.119 38.2516 920.112 37.189 924.79 37.189C928.355 37.189 931.472 38.0135 934.137 39.6657C936.821 41.2756 938.154 44.118 938.154 48.1666C938.154 51.3607 937.408 54.3952 935.918 57.2695C934.484 60.1381 932.784 62.7685 930.818 65.1595C930.075 66.0619 928.935 67.3887 927.397 69.1387L927.396 69.1379C925.914 70.8844 924.539 72.7641 923.269 74.7754C922.055 76.7814 921.451 78.6485 921.451 80.3788C921.451 81.5326 921.793 82.2335 922.439 82.5318C923.168 82.8433 924.109 83.0019 925.268 83.0019V83.083C924.101 83.083 923.147 82.9239 922.404 82.6058C921.715 82.2876 921.37 81.5453 921.37 80.3788ZM939.83 76.3956C939.747 76.474 939.665 76.5553 939.584 76.6406C939.535 76.6894 939.488 76.7394 939.442 76.7893C937.148 78.4961 934.809 79.9581 932.426 81.1741C929.881 82.4467 927.495 83.083 925.268 83.083V83.0019C927.479 83.0019 929.852 82.3694 932.389 81.101C934.919 79.81 937.4 78.2414 939.83 76.3956ZM958.275 68.846C958.275 67.4674 957.877 66.3539 957.082 65.5055C956.34 64.6571 955.491 64.2329 954.537 64.2329C953.582 64.2329 952.787 64.5776 952.151 65.2669C950.825 66.6985 949.102 68.4218 946.981 70.4367C945.238 72.1352 943.324 73.7942 941.242 75.4173C941.107 75.4785 940.974 75.5468 940.843 75.6233C943.059 73.9161 945.087 72.1692 946.924 70.3787V70.3779C948.78 68.6155 950.33 67.0766 951.576 65.7616L952.091 65.2112C952.743 64.5051 953.56 64.1518 954.537 64.1518C955.518 64.1518 956.387 64.5888 957.141 65.4498H957.142C957.954 66.316 958.356 67.4508 958.356 68.846C958.356 69.9227 958.034 71.102 957.394 72.3822C956.751 73.6686 955.654 74.9232 954.111 76.1474C952.628 77.5866 951.11 78.9981 949.558 80.3851C949.537 80.3677 949.515 80.3501 949.494 80.3326C951.051 78.942 952.573 77.527 954.06 76.0838C955.597 74.8642 956.684 73.6182 957.321 72.3456C957.957 71.073 958.275 69.9065 958.275 68.846ZM853.907 50.8708C853.04 52.8179 852.038 55.0185 850.901 57.4723C850.129 59.1832 849.343 60.9141 848.547 62.666C848.506 62.6898 848.465 62.7149 848.424 62.74C849.237 60.9513 850.039 59.1848 850.827 57.4389V57.4381C851.958 54.9986 852.954 52.8092 853.817 50.8708H853.907Z" fill="black"/>
<path d="M907.381 75.3282L906.513 74.8307L906.508 74.8401L907.381 75.3282ZM907.722 74.7333L906.857 74.2313L906.854 74.2358L907.722 74.7333ZM913.433 66.4877L914.205 67.1235L914.208 67.1201L913.433 66.4877ZM914.268 65.4657L915.042 66.0981L915.046 66.0932L914.268 65.4657ZM918.995 58.9406L919.841 59.4723L919.843 59.4705L918.995 58.9406ZM920.262 56.5656L921.181 56.9595L921.186 56.9482L921.19 56.9368L920.262 56.5656ZM920.059 52.0599L919.332 52.7471L920.059 52.0599ZM908.928 54.2789L908.376 53.4446L908.292 53.5003L908.221 53.5718L908.928 54.2789ZM908.927 54.2797L909.468 55.1209L909.558 55.0628L909.634 54.9868L908.927 54.2797ZM900.753 61.5812L899.987 60.9383L899.753 61.2171V61.5812H900.753ZM900.753 61.582L901.511 62.2338L901.753 61.9527V61.582H900.753ZM893.84 70.8782L893.133 71.5853L894.017 72.4687L894.685 71.4132L893.84 70.8782ZM893.84 70.8774L894.547 70.1703L893.652 69.2759L892.988 70.3525L893.84 70.8774ZM888.432 79.5476L887.587 79.013L887.569 79.0412L887.553 79.0707L888.432 79.5476ZM885.337 86.5317L884.402 86.1786L884.337 86.3493V86.5317H885.337ZM885.337 86.5325L886.27 86.8915L886.337 86.7182V86.5325H885.337ZM881.43 93.9453L880.614 93.3678L880.609 93.3745L880.605 93.3813L881.43 93.9453ZM871.456 95.8772L872.004 95.0402L871.955 95.0086L871.904 94.9828L871.456 95.8772ZM871.455 95.8764L870.893 96.7033L870.948 96.7409L871.008 96.7708L871.455 95.8764ZM869.272 92.3951L870.269 92.3184L870.268 92.2947L870.265 92.2711L869.272 92.3951ZM869.272 92.3887V91.3887H868.139L868.279 92.5128L869.272 92.3887ZM869.272 92.3887V93.3887H870.272V92.3887H869.272ZM872.463 81.2942L871.584 80.8187L871.584 80.8187L872.463 81.2942ZM879.786 69.5944L880.601 70.1746L880.786 69.9142V69.5944H879.786ZM879.786 69.5936L878.977 69.0061L878.786 69.2689V69.5936H879.786ZM886.941 58.9413L886.233 58.2342L886.148 58.3196L886.086 58.4227L886.941 58.9413ZM886.941 58.9406L887.649 59.6477L887.729 59.5671L887.789 59.4705L886.941 58.9406ZM888.208 56.5656L889.128 56.9595L889.132 56.9482L889.137 56.9368L888.208 56.5656ZM888.006 52.0599L887.279 52.7471L888.006 52.0599ZM876.874 54.2789L876.323 53.4446L876.239 53.5003L876.167 53.5718L876.874 54.2789ZM876.874 54.2797L877.414 55.1209L877.505 55.0628L877.581 54.9868L876.874 54.2797ZM868.7 61.5812L867.934 60.9383L867.7 61.2171V61.5812H868.7ZM868.7 61.582L869.458 62.2338L869.7 61.9527V61.582H868.7ZM861.787 70.8782L861.08 71.5853L861.964 72.4687L862.632 71.4132L861.787 70.8782ZM861.786 70.8774L862.494 70.1703L861.599 69.2759L860.935 70.3525L861.786 70.8774ZM856.379 79.5476L855.534 79.013L855.516 79.0412L855.5 79.0707L856.379 79.5476ZM853.284 86.5317L852.348 86.1786L852.284 86.3493V86.5317H853.284ZM853.284 86.5325L854.217 86.8915L854.284 86.7182V86.5325H853.284ZM849.377 93.9453L848.561 93.3678L848.556 93.3745L848.551 93.3813L849.377 93.9453ZM838.99 95.3865L838.251 96.0607L838.251 96.0607L838.99 95.3865ZM837.859 87.9522L836.897 87.6775L837.859 87.9522ZM839.531 83.1331L838.599 82.7707L838.599 82.7707L839.531 83.1331ZM840.017 81.8971L839.392 81.1164L839.185 81.2821L839.087 81.5286L840.017 81.8971ZM840.144 81.7961L841.073 82.1652L842.47 78.6494L839.518 81.0159L840.144 81.7961ZM839.607 83.1625L840.539 83.525L839.607 83.1625ZM849.31 93.8999L848.494 93.3225L848.489 93.3292L848.485 93.336L849.31 93.8999ZM853.208 86.5031L854.141 86.862L854.143 86.8561L853.208 86.5031ZM856.31 79.5039L855.465 78.9692L855.447 78.9974L855.431 79.0268L856.31 79.5039ZM861.718 70.8344L860.873 70.2993L860.867 70.3095L861.718 70.8344ZM868.638 61.5287L869.396 62.1806L869.404 62.1715L868.638 61.5287ZM876.83 54.2113L877.371 55.0526L877.381 55.0457L876.83 54.2113ZM888.283 56.5974L889.202 56.9913L889.207 56.9801L889.212 56.9688L888.283 56.5974ZM887.011 58.9835L886.163 58.4535L886.156 58.4649L887.011 58.9835ZM879.852 69.6414L879.043 69.0538L879.038 69.0612L879.852 69.6414ZM869.354 92.3887H868.354V92.4271L868.356 92.4654L869.354 92.3887ZM871.501 95.8088L870.939 96.6357L870.946 96.6408L870.954 96.6458L871.501 95.8088ZM881.364 93.8999L880.547 93.3225L880.542 93.3292L880.538 93.336L881.364 93.8999ZM885.261 86.5031L886.194 86.862L886.196 86.8561L885.261 86.5031ZM888.363 79.5039L887.518 78.9692L887.5 78.9974L887.484 79.0268L888.363 79.5039ZM893.771 70.8344L892.926 70.2993L892.92 70.3095L893.771 70.8344ZM900.691 61.5287L901.449 62.1806L901.457 62.1715L900.691 61.5287ZM908.883 54.2113L909.424 55.0526L909.434 55.0457L908.883 54.2113ZM920.336 56.5974L921.255 56.9913L921.26 56.9801L921.265 56.9688L920.336 56.5974ZM919.064 58.9835L919.911 59.5153L919.912 59.5135L919.064 58.9835ZM913.496 66.5394L912.726 65.9022L912.724 65.9037L913.496 66.5394ZM907.451 75.368L906.581 74.875L906.579 74.8798L907.451 75.368ZM908.406 94.2976L907.792 95.087L907.8 95.0934L908.406 94.2976ZM930.199 94.059L929.761 93.16L930.199 94.059ZM940.773 87.549L941.617 87.012L941.038 86.103L940.175 86.7477L940.773 87.549ZM940.817 87.6174L941.415 88.4187L942.162 87.8608L941.658 87.0764L940.817 87.6174ZM930.235 94.1322L930.673 95.0312L930.673 95.0312L930.235 94.1322ZM908.357 94.362L908.962 93.5662L908.694 93.362H908.357V94.362ZM908.356 94.362L907.742 95.1514L908.013 95.362H908.356V94.362ZM923.2 74.7317L922.354 74.1977L922.349 74.2057L922.344 74.2139L923.2 74.7317ZM927.335 69.0846L926.584 68.4245L926.579 68.431L926.573 68.4376L927.335 69.0846ZM930.756 65.1078L931.527 65.7435L931.528 65.7429L930.756 65.1078ZM935.846 57.2337L934.958 56.7734L934.955 56.7799L934.951 56.7865L935.846 57.2337ZM934.096 39.7357L933.569 40.5856L933.575 40.5895L933.582 40.5932L934.096 39.7357ZM912.86 40.4515L913.392 41.2981L913.402 41.2918L912.86 40.4515ZM904.19 47.2917L903.192 47.3504L903.323 49.5734L904.898 47.9988L904.19 47.2917ZM874.444 44.667L875.115 45.4085L875.116 45.4077L874.444 44.667ZM868.24 50.314L867.304 49.9629L868.916 51.0512L868.24 50.314ZM867.604 41.5651L866.897 42.2722L866.915 42.2908L866.935 42.3083L867.604 41.5651ZM861.592 40.5406L861.35 41.5107L861.656 41.5874L861.951 41.4743L861.592 40.5406ZM861.451 40.5072L861.079 39.5787L858.153 40.7492L861.219 41.48L861.451 40.5072ZM867.658 41.5046L866.951 42.2122L867.244 42.5046H867.658V41.5046ZM867.659 41.5046L868.328 40.7614L868.042 40.5046H867.659V41.5046ZM868.426 50.0341L867.484 49.6978L869.102 50.7714L868.426 50.0341ZM874.389 44.6065L875.06 45.3481L875.061 45.3472L874.389 44.6065ZM882.283 39.3444L881.849 38.4436L881.849 38.4436L882.283 39.3444ZM900.578 39.5098L901.146 38.6869L900.578 39.5098ZM904.259 47.1095L903.261 47.178L903.411 49.359L904.963 47.8195L904.259 47.1095ZM912.816 40.3823L913.349 41.2289L913.358 41.2227L912.816 40.3823ZM934.137 39.6657L933.611 40.5157L933.617 40.5195L933.623 40.5232L934.137 39.6657ZM935.918 57.2695L935.03 56.8092L935.027 56.8157L935.024 56.8223L935.918 57.2695ZM930.818 65.1595L931.59 65.7952L931.591 65.7946L930.818 65.1595ZM927.397 69.1387L926.69 69.8458L927.444 70.6L928.148 69.7988L927.397 69.1387ZM927.396 69.1379L928.103 68.4308L927.336 67.6633L926.633 68.4909L927.396 69.1379ZM923.269 74.7754L922.423 74.2414L922.418 74.2495L922.413 74.2577L923.269 74.7754ZM922.439 82.5318L922.02 83.4398L922.033 83.4457L922.046 83.4512L922.439 82.5318ZM922.404 82.6058L921.985 83.5137L921.998 83.5195L922.01 83.5249L922.404 82.6058ZM939.83 76.3956L940.519 77.1199L939.225 75.5992L939.83 76.3956ZM939.584 76.6406L940.291 77.3477L940.3 77.3386L940.309 77.3293L939.584 76.6406ZM939.442 76.7893L940.039 77.5916L940.111 77.5375L940.173 77.4713L939.442 76.7893ZM932.426 81.1741L932.873 82.0686L932.88 82.0649L932.426 81.1741ZM932.389 81.101L932.836 81.9954L932.844 81.9917L932.389 81.101ZM957.082 65.5055L956.329 66.164L956.341 66.1769L956.353 66.1894L957.082 65.5055ZM952.151 65.2669L952.885 65.9463L952.886 65.9451L952.151 65.2669ZM946.981 70.4367L946.292 69.7117L946.283 69.7205L946.981 70.4367ZM941.242 75.4173L941.656 76.3273L941.763 76.2784L941.856 76.206L941.242 75.4173ZM940.843 75.6233L940.233 74.8312L941.347 76.4873L940.843 75.6233ZM946.924 70.3787L947.622 71.0949L947.924 70.8005V70.3787H946.924ZM946.924 70.3779L946.236 69.6529L945.924 69.9486V70.3779H946.924ZM951.576 65.7616L952.302 66.4493L952.306 66.4451L951.576 65.7616ZM952.091 65.2112L952.821 65.8947L952.826 65.8896L952.091 65.2112ZM957.141 65.4498L956.389 66.1087L956.688 66.4498H957.141V65.4498ZM957.142 65.4498L957.871 64.7659L957.575 64.4498H957.142V65.4498ZM957.394 72.3822L958.288 72.8294L957.394 72.3822ZM954.111 76.1474L953.489 75.3639L953.45 75.3951L953.414 75.43L954.111 76.1474ZM949.558 80.3851L948.926 81.1597L949.587 81.7001L950.224 81.1307L949.558 80.3851ZM949.494 80.3326L948.828 79.587L947.96 80.3626L948.858 81.1037L949.494 80.3326ZM954.06 76.0838L953.438 75.3003L953.399 75.3315L953.363 75.3664L954.06 76.0838ZM853.907 50.8708L854.82 51.2775L855.447 49.8708H853.907V50.8708ZM850.901 57.4723L849.994 57.0518L849.99 57.061L850.901 57.4723ZM848.547 62.666L849.049 63.5311L849.325 63.3708L849.457 63.08L848.547 62.666ZM848.424 62.74L847.513 62.326L846.176 65.267L848.941 63.5958L848.424 62.74ZM850.827 57.4389L851.739 57.8502L851.827 57.6541V57.4389H850.827ZM850.827 57.4381L849.92 57.0176L849.827 57.2177V57.4381H850.827ZM853.817 50.8708V49.8708H853.168L852.903 50.464L853.817 50.8708ZM904.746 85.4691H905.746C905.746 82.0195 906.581 78.8069 908.253 75.8164L907.381 75.3282L906.508 74.8401C904.667 78.1308 903.746 81.6797 903.746 85.4691H904.746ZM907.381 75.3282L908.248 75.8257L908.589 75.2308L907.722 74.7333L906.854 74.2358L906.513 74.8307L907.381 75.3282ZM907.722 74.7333L908.587 75.2353C910.278 72.3222 912.151 69.6185 914.205 67.1235L913.433 66.4877L912.661 65.852C910.535 68.4344 908.6 71.2279 906.857 74.2313L907.722 74.7333ZM913.433 66.4877L914.208 67.1201L915.042 66.0981L914.268 65.4657L913.493 64.8333L912.659 65.8554L913.433 66.4877ZM914.268 65.4657L915.046 66.0932C916.965 63.7124 918.565 61.5051 919.841 59.4723L918.995 58.9406L918.148 58.4088C916.923 60.3594 915.372 62.5021 913.489 64.8382L914.268 65.4657ZM918.995 58.9406L919.843 59.4705C920.392 58.5915 920.84 57.754 921.181 56.9595L920.262 56.5656L919.342 56.1717C919.051 56.8525 918.654 57.5985 918.147 58.4106L918.995 58.9406ZM920.262 56.5656L921.19 56.9368C921.548 56.042 921.732 55.1317 921.732 54.2113H920.732H919.732C919.732 54.8583 919.604 55.5173 919.333 56.1944L920.262 56.5656ZM920.732 54.2113H921.732C921.732 53.1011 921.471 52.0974 920.785 51.3727L920.059 52.0599L919.332 52.7471C919.535 52.9617 919.732 53.3826 919.732 54.2113H920.732ZM920.059 52.0599L920.785 51.3727C920.091 50.6384 919.113 50.3496 918.03 50.3496V51.3496V52.3496C918.775 52.3496 919.14 52.5437 919.332 52.7471L920.059 52.0599ZM918.03 51.3496V50.3496C914.697 50.3496 911.475 51.3975 908.376 53.4446L908.928 54.2789L909.479 55.1133C912.296 53.2517 915.141 52.3496 918.03 52.3496V51.3496ZM908.928 54.2789L908.221 53.5718L908.22 53.5726L908.927 54.2797L909.634 54.9868L909.635 54.986L908.928 54.2789ZM908.927 54.2797L908.386 53.4385C905.332 55.402 902.533 57.9051 899.987 60.9383L900.753 61.5812L901.519 62.224C903.948 59.3299 906.598 56.9654 909.468 55.1209L908.927 54.2797ZM900.753 61.5812H899.753V61.582H900.753H901.753V61.5812H900.753ZM900.753 61.582L899.995 60.9301C897.369 63.9843 895.036 67.1219 892.996 70.3431L893.84 70.8782L894.685 71.4132C896.67 68.2786 898.945 65.2187 901.511 62.2338L900.753 61.582ZM893.84 70.8782L894.547 70.171L894.547 70.1703L893.84 70.8774L893.132 71.5845L893.133 71.5853L893.84 70.8782ZM893.84 70.8774L892.988 70.3525C891.028 73.5315 889.228 76.4186 887.587 79.013L888.432 79.5476L889.277 80.0822C890.923 77.4799 892.727 74.5861 894.691 71.4022L893.84 70.8774ZM888.432 79.5476L887.553 79.0707C886.52 80.9741 885.47 83.3466 884.402 86.1786L885.337 86.5317L886.273 86.8847C887.322 84.1055 888.335 81.8226 889.311 80.0246L888.432 79.5476ZM885.337 86.5317H884.337V86.5325H885.337H886.337V86.5317H885.337ZM885.337 86.5325L884.404 86.1735C883.368 88.8665 882.103 91.2625 880.614 93.3678L881.43 93.9453L882.247 94.5227C883.841 92.2685 885.181 89.7231 886.27 86.8915L885.337 86.5325ZM881.43 93.9453L880.605 93.3813C879.265 95.3424 877.624 96.242 875.637 96.242V97.242V98.242C878.378 98.242 880.6 96.9339 882.256 94.5092L881.43 93.9453ZM875.637 97.242V96.242C874.469 96.242 873.262 95.863 872.004 95.0402L871.456 95.8772L870.909 96.7142C872.429 97.708 874.01 98.242 875.637 98.242V97.242ZM871.456 95.8772L871.904 94.9828L871.902 94.982L871.455 95.8764L871.008 96.7708L871.009 96.7716L871.456 95.8772ZM871.455 95.8764L872.017 95.0495C870.881 94.2771 870.351 93.3723 870.269 92.3184L869.272 92.3951L868.275 92.4718C868.411 94.2326 869.344 95.6501 870.893 96.7033L871.455 95.8764ZM869.272 92.3951L870.265 92.2711L870.264 92.2647L869.272 92.3887L868.279 92.5128L868.28 92.5191L869.272 92.3951ZM869.272 92.3887V93.3887H869.272V92.3887V91.3887H869.272V92.3887ZM869.272 92.3887H870.272C870.272 89.133 871.274 85.5977 873.343 81.7697L872.463 81.2942L871.584 80.8187C869.402 84.8554 868.272 88.7175 868.272 92.3887H869.272ZM872.463 81.2942L873.343 81.7697C875.445 77.8814 877.864 74.0166 880.601 70.1746L879.786 69.5944L878.972 69.0143C876.191 72.9188 873.727 76.8534 871.584 80.8187L872.463 81.2942ZM879.786 69.5944H880.786V69.5936H879.786H878.786V69.5944H879.786ZM879.786 69.5936L880.596 70.1812C883.417 66.295 885.818 62.7208 887.796 59.46L886.941 58.9413L886.086 58.4227C884.143 61.6261 881.774 65.1537 878.977 69.0061L879.786 69.5936ZM886.941 58.9413L887.648 59.6485L887.649 59.6477L886.941 58.9406L886.234 58.2334L886.233 58.2342L886.941 58.9413ZM886.941 58.9406L887.789 59.4705C888.339 58.5915 888.787 57.754 889.128 56.9595L888.208 56.5656L887.289 56.1717C886.997 56.8525 886.601 57.5985 886.093 58.4106L886.941 58.9406ZM888.208 56.5656L889.137 56.9368C889.495 56.042 889.679 55.1317 889.679 54.2113H888.679H887.679C887.679 54.8583 887.551 55.5173 887.28 56.1944L888.208 56.5656ZM888.679 54.2113H889.679C889.679 53.1011 889.418 52.0974 888.732 51.3727L888.006 52.0599L887.279 52.7471C887.482 52.9617 887.679 53.3826 887.679 54.2113H888.679ZM888.006 52.0599L888.732 51.3727C888.037 50.6384 887.06 50.3496 885.977 50.3496V51.3496V52.3496C886.722 52.3496 887.087 52.5437 887.279 52.7471L888.006 52.0599ZM885.977 51.3496V50.3496C882.644 50.3496 879.422 51.3975 876.323 53.4446L876.874 54.2789L877.426 55.1133C880.243 53.2517 883.088 52.3496 885.977 52.3496V51.3496ZM876.874 54.2789L876.167 53.5718L876.167 53.5726L876.874 54.2797L877.581 54.9868L877.582 54.986L876.874 54.2789ZM876.874 54.2797L876.333 53.4385C873.279 55.402 870.479 57.9051 867.934 60.9383L868.7 61.5812L869.466 62.224C871.895 59.3299 874.545 56.9654 877.414 55.1209L876.874 54.2797ZM868.7 61.5812H867.7V61.582H868.7H869.7V61.5812H868.7ZM868.7 61.582L867.941 60.9301C865.316 63.9843 862.983 67.1219 860.942 70.3431L861.787 70.8782L862.632 71.4132C864.617 68.2786 866.892 65.2187 869.458 62.2338L868.7 61.582ZM861.787 70.8782L862.494 70.171L862.494 70.1703L861.786 70.8774L861.079 71.5845L861.08 71.5853L861.787 70.8782ZM861.786 70.8774L860.935 70.3525C858.975 73.5315 857.175 76.4186 855.534 79.013L856.379 79.5476L857.224 80.0822C858.87 77.4799 860.674 74.5861 862.638 71.4022L861.786 70.8774ZM856.379 79.5476L855.5 79.0707C854.467 80.9741 853.417 83.3466 852.348 86.1786L853.284 86.5317L854.22 86.8847C855.268 84.1055 856.282 81.8226 857.258 80.0246L856.379 79.5476ZM853.284 86.5317H852.284V86.5325H853.284H854.284V86.5317H853.284ZM853.284 86.5325L852.351 86.1735C851.315 88.8665 850.05 91.2625 848.561 93.3678L849.377 93.9453L850.194 94.5227C851.788 92.2685 853.128 89.7231 854.217 86.8915L853.284 86.5325ZM849.377 93.9453L848.551 93.3813C847.212 95.3424 845.57 96.242 843.584 96.242V97.242V98.242C846.325 98.242 848.547 96.9339 850.203 94.5092L849.377 93.9453ZM843.584 97.242V96.242C841.889 96.242 840.64 95.7106 839.728 94.7122L838.99 95.3865L838.251 96.0607C839.602 97.5406 841.423 98.242 843.584 98.242V97.242ZM838.99 95.3865L839.728 94.7122C838.774 93.6672 838.299 92.4318 838.299 90.9571H837.299H836.299C836.299 92.9152 836.95 94.6358 838.251 96.0607L838.99 95.3865ZM837.299 90.9571H838.299C838.299 90.4002 838.455 89.5067 838.82 88.2269L837.859 87.9522L836.897 87.6775C836.52 88.9993 836.299 90.1119 836.299 90.9571H837.299ZM837.859 87.9522L838.82 88.2269C839.181 86.9651 839.727 85.39 840.463 83.4956L839.531 83.1331L838.599 82.7707C837.85 84.6966 837.281 86.3345 836.897 87.6775L837.859 87.9522ZM839.531 83.1331L840.463 83.4956C840.622 83.0885 840.783 82.6784 840.946 82.2656L840.017 81.8971L839.087 81.5286C838.922 81.9458 838.759 82.3599 838.599 82.7707L839.531 83.1331ZM840.017 81.8971L840.642 82.6778C840.66 82.6632 840.678 82.6485 840.7 82.6313C840.721 82.6147 840.745 82.5958 840.769 82.5763L840.144 81.7961L839.518 81.0159C839.425 81.0909 839.499 81.0302 839.392 81.1164L840.017 81.8971ZM840.144 81.7961L839.214 81.427C839.031 81.8886 838.851 82.3463 838.675 82.8001L839.607 83.1625L840.539 83.525C840.714 83.0752 840.892 82.622 841.073 82.1652L840.144 81.7961ZM839.607 83.1625L838.675 82.8001C837.927 84.7247 837.358 86.36 836.975 87.6998C836.598 89.0199 836.38 90.1237 836.38 90.9571H837.38H838.38C838.38 90.4119 838.533 89.5272 838.898 88.2492C839.258 86.9907 839.803 85.4181 840.539 83.525L839.607 83.1625ZM837.38 90.9571H836.38C836.38 92.8958 837.025 94.5965 838.312 96.0059L839.05 95.3316L839.789 94.6573C838.848 93.6275 838.38 92.4119 838.38 90.9571H837.38ZM839.05 95.3316L838.312 96.0059C839.645 97.466 841.442 98.1609 843.584 98.1609V97.1609V96.1609C841.908 96.1609 840.683 95.6363 839.789 94.6573L839.05 95.3316ZM843.584 97.1609V98.1609C846.294 98.1609 848.493 96.8699 850.136 94.4639L849.31 93.8999L848.485 93.336C847.158 95.278 845.54 96.1609 843.584 96.1609V97.1609ZM849.31 93.8999L850.127 94.4774C851.717 92.2288 853.054 89.6884 854.141 86.862L853.208 86.5031L852.274 86.1441C851.24 88.8323 849.979 91.2231 848.494 93.3225L849.31 93.8999ZM853.208 86.5031L854.143 86.8561C855.194 84.0722 856.21 81.784 857.188 79.981L856.31 79.5039L855.431 79.0268C854.395 80.9354 853.343 83.3133 852.272 86.15L853.208 86.5031ZM856.31 79.5039L857.155 80.0385C858.801 77.4365 860.606 74.5433 862.569 71.3593L861.718 70.8344L860.867 70.3095C858.907 73.4884 857.106 76.3749 855.465 78.9692L856.31 79.5039ZM861.718 70.8344L862.563 71.3695C864.55 68.2313 866.828 65.1683 869.396 62.1805L868.638 61.5287L867.879 60.8768C865.251 63.9338 862.916 67.0746 860.873 70.2994L861.718 70.8344ZM868.638 61.5287L869.404 62.1715C871.837 59.2717 874.494 56.9019 877.371 55.0525L876.83 54.2113L876.289 53.3701C873.227 55.3385 870.422 57.8469 867.872 60.8858L868.638 61.5287ZM876.83 54.2113L877.381 55.0457C880.21 53.1765 883.07 52.2685 885.977 52.2685V51.2685V50.2685C882.626 50.2685 879.388 51.3224 876.279 53.377L876.83 54.2113ZM885.977 51.2685V52.2685C886.736 52.2685 887.125 52.4664 887.338 52.6914C887.561 52.9268 887.76 53.3711 887.76 54.2113H888.76H889.76C889.76 53.0897 889.496 52.0625 888.791 51.317C888.076 50.561 887.073 50.2685 885.977 50.2685V51.2685ZM888.76 54.2113H887.76C887.76 54.8699 887.629 55.5396 887.355 56.226L888.283 56.5974L889.212 56.9688C889.573 56.0645 889.76 55.1434 889.76 54.2113H888.76ZM888.283 56.5974L887.364 56.2035C887.07 56.8892 886.672 57.6388 886.163 58.4535L887.011 58.9835L887.859 59.5135C888.41 58.6315 888.86 57.7903 889.202 56.9913L888.283 56.5974ZM887.011 58.9835L886.156 58.4649C884.211 61.6706 881.841 65.1999 879.043 69.0539L879.852 69.6414L880.662 70.2289C883.484 66.3413 885.886 62.7654 887.866 59.5021L887.011 58.9835ZM879.852 69.6414L879.038 69.0612C876.258 72.9633 873.797 76.8954 871.655 80.8577L872.535 81.3332L873.415 81.8087C875.515 77.9234 877.932 74.061 880.667 70.2215L879.852 69.6414ZM872.535 81.3332L871.655 80.8577C869.478 84.8858 868.354 88.7344 868.354 92.3887H869.354H870.354C870.354 89.1499 871.35 85.6282 873.415 81.8087L872.535 81.3332ZM869.354 92.3887L868.356 92.4654C868.49 94.1977 869.407 95.594 870.939 96.6357L871.501 95.8088L872.063 94.9819C870.944 94.2208 870.429 93.3371 870.351 92.312L869.354 92.3887ZM871.501 95.8088L870.954 96.6458C872.463 97.6325 874.029 98.1609 875.637 98.1609V97.1609V96.1609C874.488 96.1609 873.296 95.7879 872.048 94.9718L871.501 95.8088ZM875.637 97.1609V98.1609C878.347 98.1609 880.546 96.8699 882.189 94.4639L881.364 93.8999L880.538 93.336C879.211 95.278 877.593 96.1609 875.637 96.1609V97.1609ZM881.364 93.8999L882.18 94.4774C883.77 92.2288 885.107 89.6884 886.194 86.862L885.261 86.5031L884.327 86.1441C883.294 88.8323 882.032 91.2231 880.547 93.3225L881.364 93.8999ZM885.261 86.5031L886.196 86.8561C887.247 84.0722 888.263 81.784 889.242 79.981L888.363 79.5039L887.484 79.0268C886.448 80.9354 885.396 83.3133 884.325 86.15L885.261 86.5031ZM888.363 79.5039L889.208 80.0385C890.854 77.4365 892.659 74.5433 894.622 71.3593L893.771 70.8344L892.92 70.3095C890.96 73.4884 889.159 76.3749 887.518 78.9692L888.363 79.5039ZM893.771 70.8344L894.616 71.3695C896.604 68.2313 898.881 65.1683 901.449 62.1805L900.691 61.5287L899.933 60.8768C897.305 63.9338 894.969 67.0746 892.926 70.2994L893.771 70.8344ZM900.691 61.5287L901.457 62.1715C903.891 59.2717 906.547 56.9019 909.424 55.0525L908.883 54.2113L908.342 53.3701C905.28 55.3385 902.475 57.8469 899.925 60.8858L900.691 61.5287ZM908.883 54.2113L909.434 55.0457C912.263 53.1765 915.123 52.2685 918.03 52.2685V51.2685V50.2685C914.679 50.2685 911.442 51.3224 908.332 53.377L908.883 54.2113ZM918.03 51.2685V52.2685C918.789 52.2685 919.178 52.4664 919.391 52.6914C919.614 52.9268 919.814 53.3711 919.814 54.2113H920.814H921.814C921.814 53.0897 921.549 52.0625 920.844 51.317C920.129 50.561 919.126 50.2685 918.03 50.2685V51.2685ZM920.814 54.2113H919.814C919.814 54.8699 919.682 55.5396 919.408 56.226L920.336 56.5974L921.265 56.9688C921.627 56.0645 921.814 55.1434 921.814 54.2113H920.814ZM920.336 56.5974L919.417 56.2035C919.123 56.8892 918.725 57.6388 918.216 58.4535L919.064 58.9835L919.912 59.5135C920.463 58.6315 920.913 57.7903 921.255 56.9913L920.336 56.5974ZM919.064 58.9835L918.217 58.4517C916.814 60.6853 914.986 63.1682 912.726 65.9022L913.496 66.5394L914.267 67.1767C916.566 64.3961 918.45 61.8418 919.911 59.5153L919.064 58.9835ZM913.496 66.5394L912.724 65.9037C910.459 68.6545 908.411 71.6454 906.581 74.875L907.451 75.368L908.321 75.861C910.097 72.7277 912.079 69.8328 914.268 67.1752L913.496 66.5394ZM907.451 75.368L906.579 74.8798C904.745 78.1583 903.827 81.6936 903.827 85.4691H904.827H905.827C905.827 82.0333 906.658 78.8345 908.324 75.8561L907.451 75.368ZM904.827 85.4691H903.827C903.827 89.6967 905.086 92.9827 907.792 95.087L908.406 94.2976L909.02 93.5083C906.953 91.9008 905.827 89.3011 905.827 85.4691H904.827ZM908.406 94.2976L907.8 95.0934C910.457 97.1149 913.87 98.0814 917.95 98.0814V97.0814V96.0814C914.183 96.0814 911.233 95.1921 909.011 93.5018L908.406 94.2976ZM917.95 97.0814V98.0814C922.152 98.0814 926.384 97.0299 930.637 94.958L930.199 94.059L929.761 93.16C925.742 95.1179 921.808 96.0814 917.95 96.0814V97.0814ZM930.199 94.059L930.637 94.958C934.263 93.1914 937.841 90.987 941.371 88.3502L940.773 87.549L940.175 86.7477C936.735 89.3168 933.264 91.4536 929.761 93.16L930.199 94.059ZM940.773 87.549L939.93 88.0859C939.945 88.1097 939.96 88.1339 939.976 88.1583L940.817 87.6174L941.658 87.0764C941.644 87.0553 941.631 87.0339 941.617 87.012L940.773 87.549ZM940.817 87.6174L940.219 86.8161C936.776 89.3864 933.303 91.5251 929.797 93.2332L930.235 94.1322L930.673 95.0312C934.302 93.2629 937.882 91.0565 941.415 88.4187L940.817 87.6174ZM930.235 94.1322L929.797 93.2332C925.768 95.1957 921.822 96.1625 917.95 96.1625V97.1625V98.1625C922.166 98.1625 926.41 97.1078 930.673 95.0312L930.235 94.1322ZM917.95 97.1625V96.1625C914.171 96.1625 911.201 95.27 908.962 93.5662L908.357 94.362L907.751 95.1579C910.425 97.1928 913.857 98.1625 917.95 98.1625V97.1625ZM908.357 94.362V93.362H908.356V94.362V95.362H908.357V94.362ZM908.356 94.362L908.97 93.5727C906.877 91.9451 905.746 89.3174 905.746 85.4691H904.746H903.746C903.746 89.7127 905.01 93.0268 907.742 95.1514L908.356 94.362ZM921.37 80.3788H922.37C922.37 78.8642 922.898 77.1605 924.055 75.2495L923.2 74.7317L922.344 74.2139C921.062 76.3327 920.37 78.3937 920.37 80.3788H921.37ZM923.2 74.7317L924.045 75.2657C925.294 73.2888 926.645 71.4444 928.098 69.7316L927.335 69.0846L926.573 68.4376C925.057 70.2244 923.651 72.1447 922.354 74.1977L923.2 74.7317ZM927.335 69.0846L928.087 69.7447C929.626 67.9931 930.775 66.6577 931.527 65.7435L930.756 65.1078L929.984 64.4721C929.252 65.3607 928.12 66.6765 926.584 68.4245L927.335 69.0846ZM930.756 65.1078L931.528 65.7429C933.539 63.2969 935.276 60.6088 936.74 57.6809L935.846 57.2337L934.951 56.7865C933.552 59.5852 931.896 62.1465 929.983 64.4727L930.756 65.1078ZM935.846 57.2337L936.734 57.694C938.291 54.6905 939.073 51.5105 939.073 48.1666H938.073H937.073C937.073 51.1855 936.37 54.0503 934.958 56.7734L935.846 57.2337ZM938.073 48.1666H939.073C939.073 43.9069 937.654 40.7044 934.611 38.8782L934.096 39.7357L933.582 40.5932C935.84 41.9484 937.073 44.3665 937.073 48.1666H938.073ZM934.096 39.7357L934.623 38.8858C931.792 37.1309 928.503 36.2701 924.79 36.2701V37.2701V38.2701C928.183 38.2701 931.097 39.0531 933.569 40.5856L934.096 39.7357ZM924.79 37.2701V36.2701C919.969 36.2701 915.796 37.3674 912.318 39.6112L912.86 40.4515L913.402 41.2918C916.499 39.2938 920.279 38.2701 924.79 38.2701V37.2701ZM912.86 40.4515L912.327 39.6051C908.983 41.7088 906.033 44.0345 903.483 46.5846L904.19 47.2917L904.898 47.9988C907.332 45.5645 910.162 43.3302 913.392 41.298L912.86 40.4515ZM904.19 47.2917L905.189 47.2329C904.965 43.4306 903.659 40.521 901.1 38.7537L900.532 39.5766L899.964 40.3995C901.858 41.7077 902.992 43.9414 903.192 47.3504L904.19 47.2917ZM900.532 39.5766L901.1 38.7537C898.69 37.0895 895.889 36.2701 892.737 36.2701V37.2701V38.2701C895.524 38.2701 897.92 38.9884 899.964 40.3995L900.532 39.5766ZM892.737 37.2701V36.2701C888.641 36.2701 885.014 37.0077 881.884 38.5168L882.318 39.4176L882.752 40.3183C885.561 38.9641 888.88 38.2701 892.737 38.2701V37.2701ZM882.318 39.4176L881.884 38.5168C878.834 39.9872 876.128 41.7894 873.772 43.9262L874.444 44.667L875.116 45.4077C877.32 43.4086 879.863 41.7113 882.752 40.3183L882.318 39.4176ZM874.444 44.667L873.773 43.9254C871.545 45.9416 869.475 47.8254 867.564 49.5769L868.24 50.314L868.916 51.0512C870.823 49.3031 872.889 47.4222 875.115 45.4085L874.444 44.667ZM868.24 50.314L869.176 50.6652C869.84 48.8945 870.194 47.2611 870.194 45.7805H869.194H868.194C868.194 46.951 867.912 48.34 867.304 49.9629L868.24 50.314ZM869.194 45.7805H870.194C870.194 43.7315 869.603 42.0189 868.273 40.8218L867.604 41.5651L866.935 42.3083C867.726 43.0201 868.194 44.1177 868.194 45.7805H869.194ZM867.604 41.5651L868.311 40.8579C867.131 39.6785 865.716 39.0539 864.104 39.0539V40.0539V41.0539C865.143 41.0539 866.061 41.4367 866.897 42.2722L867.604 41.5651ZM864.104 40.0539V39.0539C863.141 39.0539 862.183 39.2432 861.234 39.6069L861.592 40.5406L861.951 41.4743C862.692 41.1898 863.408 41.0539 864.104 41.0539V40.0539ZM861.592 40.5406L861.835 39.5706C861.786 39.5581 861.702 39.5391 861.683 39.5345L861.451 40.5072L861.219 41.48C861.294 41.4979 861.306 41.4997 861.35 41.5107L861.592 40.5406ZM861.451 40.5072L861.822 41.4357C862.606 41.1221 863.365 40.9727 864.104 40.9727V39.9727V38.9727C863.088 38.9727 862.078 39.1794 861.079 39.5787L861.451 40.5072ZM864.104 39.9727V40.9727C865.166 40.9727 866.102 41.3646 866.951 42.2122L867.658 41.5046L868.364 40.797C867.172 39.6059 865.738 38.9727 864.104 38.9727V39.9727ZM867.658 41.5046V42.5046H867.659V41.5046V40.5046H867.658V41.5046ZM867.659 41.5046L866.99 42.2478C867.802 42.9792 868.276 44.1018 868.276 45.7805H869.276H870.276C870.276 43.7163 869.68 41.9784 868.328 40.7614L867.659 41.5046ZM869.276 45.7805H868.276C868.276 46.8904 868.022 48.1911 867.484 49.6978L868.426 50.0341L869.368 50.3703C869.957 48.7193 870.276 47.1848 870.276 45.7805H869.276ZM868.426 50.0341L869.102 50.7714C870.942 49.0856 872.928 47.2773 875.06 45.3481L874.389 44.6065L873.718 43.865C871.583 45.797 869.594 47.608 867.751 49.2967L868.426 50.0341ZM874.389 44.6065L875.061 45.3472C877.271 43.3426 879.822 41.6413 882.717 40.2452L882.283 39.3444L881.849 38.4436C878.793 39.9171 876.079 41.7233 873.717 43.8658L874.389 44.6065ZM882.283 39.3444L882.717 40.2452C885.539 38.8847 888.871 38.189 892.737 38.189V37.189V36.189C888.631 36.189 884.992 36.9283 881.849 38.4436L882.283 39.3444ZM892.737 37.189V38.189C895.539 38.189 897.951 38.9113 900.01 40.3327L900.578 39.5098L901.146 38.6869C898.721 37.0124 895.904 36.189 892.737 36.189V37.189ZM900.578 39.5098L900.01 40.3327C901.9 41.6381 903.032 43.8466 903.261 47.178L904.259 47.1095L905.256 47.041C905.001 43.3141 903.69 40.4433 901.146 38.6869L900.578 39.5098ZM904.259 47.1095L904.963 47.8195C907.374 45.4278 910.168 43.2297 913.349 41.2288L912.816 40.3823L912.284 39.5359C908.991 41.6074 906.08 43.8951 903.555 46.3995L904.259 47.1095ZM912.816 40.3823L913.358 41.2227C916.471 39.2149 920.267 38.189 924.79 38.189V37.189V36.189C919.957 36.189 915.768 37.2884 912.274 39.542L912.816 40.3823ZM924.79 37.189V38.189C928.196 38.189 931.124 38.9746 933.611 40.5157L934.137 39.6657L934.664 38.8158C931.819 37.0524 928.515 36.189 924.79 36.189V37.189ZM934.137 39.6657L933.623 40.5232C935.914 41.8976 937.154 44.3478 937.154 48.1666H938.154H939.154C939.154 43.8883 937.728 40.6537 934.652 38.8082L934.137 39.6657ZM938.154 48.1666H937.154C937.154 51.1982 936.448 54.075 935.03 56.8092L935.918 57.2695L936.806 57.7297C938.369 54.7153 939.154 51.5233 939.154 48.1666H938.154ZM935.918 57.2695L935.024 56.8223C933.622 59.6264 931.963 62.1935 930.046 64.5244L930.818 65.1595L931.591 65.7946C933.606 63.3436 935.346 60.6497 936.813 57.7167L935.918 57.2695ZM930.818 65.1595L930.046 64.5238C929.314 65.4135 928.182 66.7306 926.646 68.4786L927.397 69.1387L928.148 69.7988C929.687 68.0469 930.837 66.7104 931.59 65.7952L930.818 65.1595ZM927.397 69.1387L928.104 68.4316L928.103 68.4308L927.396 69.1379L926.689 69.845L926.69 69.8458L927.397 69.1387ZM927.396 69.1379L926.633 68.4909C925.12 70.2747 923.717 72.1923 922.423 74.2414L923.269 74.7754L924.114 75.3094C925.361 73.3358 926.708 71.494 928.158 69.7849L927.396 69.1379ZM923.269 74.7754L922.413 74.2577C921.137 76.3673 920.451 78.4131 920.451 80.3788H921.451H922.451C922.451 78.884 922.973 77.1954 924.124 75.2932L923.269 74.7754ZM921.451 80.3788H920.451C920.451 81.6904 920.849 82.899 922.02 83.4398L922.439 82.5318L922.858 81.6239C922.737 81.5679 922.451 81.3749 922.451 80.3788H921.451ZM922.439 82.5318L922.046 83.4512C922.941 83.8339 924.028 84.0019 925.268 84.0019V83.0019V82.0019C924.19 82.0019 923.395 81.8528 922.832 81.6124L922.439 82.5318ZM925.268 83.0019H924.268V83.083H925.268H926.268V83.0019H925.268ZM925.268 83.083V82.083C924.181 82.083 923.374 81.9333 922.798 81.6866L922.404 82.6058L922.01 83.5249C922.92 83.9146 924.021 84.083 925.268 84.083V83.083ZM922.404 82.6058L922.823 81.6978C922.661 81.6227 922.37 81.3899 922.37 80.3788H921.37H920.37C920.37 81.7007 920.769 82.9525 921.985 83.5137L922.404 82.6058ZM939.83 76.3956L939.14 75.6713C939.049 75.7579 938.955 75.8513 938.859 75.9518L939.584 76.6406L940.309 77.3293C940.376 77.2592 940.446 77.1901 940.519 77.1199L939.83 76.3956ZM939.584 76.6406L938.877 75.9334C938.815 75.9956 938.758 76.0566 938.71 76.1073L939.442 76.7893L940.173 77.4713C940.219 77.4222 940.256 77.3832 940.291 77.3477L939.584 76.6406ZM939.442 76.7893L938.845 75.987C936.592 77.6628 934.301 79.0945 931.971 80.2834L932.426 81.1741L932.88 82.0649C935.317 80.8217 937.703 79.3295 940.039 77.5916L939.442 76.7893ZM932.426 81.1741L931.979 80.2797C929.535 81.5016 927.302 82.083 925.268 82.083V83.083V84.083C927.687 84.083 930.226 83.3919 932.873 82.0686L932.426 81.1741ZM925.268 83.083H926.268V83.0019H925.268H924.268V83.083H925.268ZM925.268 83.0019V84.0019C927.671 84.0019 930.198 83.3145 932.836 81.9954L932.389 81.101L931.942 80.2065C929.506 81.4243 927.286 82.0019 925.268 82.0019V83.0019ZM932.389 81.101L932.844 81.9917C935.431 80.6718 937.961 79.0709 940.435 77.1919L939.83 76.3956L939.225 75.5992C936.838 77.4119 934.408 78.9481 931.935 80.2102L932.389 81.101ZM958.275 68.846H959.275C959.275 67.2634 958.812 65.8889 957.812 64.8215L957.082 65.5055L956.353 66.1894C956.943 66.8189 957.275 67.6713 957.275 68.846H958.275ZM957.082 65.5055L957.835 64.847C956.94 63.8248 955.833 63.2329 954.537 63.2329V64.2329V65.2329C955.15 65.2329 955.739 65.4894 956.329 66.164L957.082 65.5055ZM954.537 64.2329V63.2329C953.309 63.2329 952.245 63.6902 951.416 64.5886L952.151 65.2669L952.886 65.9451C953.329 65.4649 953.856 65.2329 954.537 65.2329V64.2329ZM952.151 65.2669L951.417 64.5875C950.111 65.9978 948.405 67.705 946.292 69.7117L946.981 70.4367L947.67 71.1617C949.799 69.1386 951.539 67.3992 952.885 65.9463L952.151 65.2669ZM946.981 70.4367L946.283 69.7205C944.569 71.3908 942.683 73.0259 940.627 74.6286L941.242 75.4173L941.856 76.206C943.965 74.5625 945.907 72.8795 947.679 71.153L946.981 70.4367ZM941.242 75.4173L940.827 74.5073C940.664 74.5817 940.501 74.6653 940.34 74.7593L940.843 75.6233L941.347 76.4873C941.448 76.4283 941.551 76.3752 941.656 76.3273L941.242 75.4173ZM940.843 75.6233L941.453 76.4154C943.697 74.6871 945.754 72.915 947.622 71.0949L946.924 70.3787L946.227 69.6624C944.419 71.4233 942.421 73.1451 940.233 74.8312L940.843 75.6233ZM946.924 70.3787H947.924V70.3779H946.924H945.924V70.3787H946.924ZM946.924 70.3779L947.613 71.1029C949.476 69.3329 951.04 67.7811 952.302 66.4492L951.576 65.7616L950.85 65.0739C949.62 66.3722 948.083 67.8981 946.236 69.6529L946.924 70.3779ZM951.576 65.7616L952.306 66.4451L952.821 65.8947L952.091 65.2112L951.361 64.5277L950.846 65.0781L951.576 65.7616ZM952.091 65.2112L952.826 65.8896C953.285 65.3928 953.833 65.1518 954.537 65.1518V64.1518V63.1518C953.287 63.1518 952.202 63.6174 951.356 64.5328L952.091 65.2112ZM954.537 64.1518V65.1518C955.177 65.1518 955.787 65.4213 956.389 66.1087L957.141 65.4498L957.893 64.7909C956.987 63.7563 955.859 63.1518 954.537 63.1518V64.1518ZM957.141 65.4498V66.4498H957.142V65.4498V64.4498H957.141V65.4498ZM957.142 65.4498L956.412 66.1337C957.019 66.7808 957.356 67.6544 957.356 68.846H958.356H959.356C959.356 67.2473 958.889 65.8512 957.871 64.7659L957.142 65.4498ZM958.356 68.846H957.356C957.356 69.724 957.093 70.7487 956.499 71.935L957.394 72.3822L958.288 72.8294C958.975 71.4552 959.356 70.1213 959.356 68.846H958.356ZM957.394 72.3822L956.499 71.935C955.941 73.0508 954.959 74.198 953.489 75.3639L954.111 76.1474L954.732 76.9309C956.349 75.6484 957.56 74.2863 958.288 72.8294L957.394 72.3822ZM954.111 76.1474L953.414 75.43C951.942 76.859 950.434 78.2612 948.892 79.6395L949.558 80.3851L950.224 81.1307C951.786 79.7351 953.314 78.3142 954.807 76.8649L954.111 76.1474ZM949.558 80.3851L950.19 79.6105C950.172 79.5954 950.157 79.5827 950.131 79.5615L949.494 80.3326L948.858 81.1037C948.874 81.1175 948.901 81.1401 948.926 81.1597L949.558 80.3851ZM949.494 80.3326L950.161 81.0783C951.726 79.6791 953.26 78.2546 954.756 76.8012L954.06 76.0838L953.363 75.3664C951.887 76.7993 950.375 78.2049 948.828 79.587L949.494 80.3326ZM954.06 76.0838L954.681 76.8673C956.292 75.5893 957.494 74.2358 958.215 72.7928L957.321 72.3456L956.426 71.8984C955.875 73.0005 954.902 74.1392 953.438 75.3003L954.06 76.0838ZM957.321 72.3456L958.215 72.7928C958.898 71.4266 959.275 70.1054 959.275 68.846H958.275H957.275C957.275 69.7075 957.016 70.7194 956.426 71.8984L957.321 72.3456ZM853.907 50.8708L852.993 50.4641C852.129 52.4057 851.129 54.6016 849.994 57.0518L850.901 57.4723L851.808 57.8928C852.947 55.4355 853.951 53.2302 854.82 51.2775L853.907 50.8708ZM850.901 57.4723L849.99 57.061C849.218 58.7706 848.433 60.5005 847.637 62.2521L848.547 62.666L849.457 63.08C850.254 61.3277 851.04 59.5958 851.813 57.8836L850.901 57.4723ZM848.547 62.666L848.045 61.801C847.994 61.8308 847.938 61.8648 847.906 61.8842L848.424 62.74L848.941 63.5958C848.992 63.565 849.018 63.5488 849.049 63.5311L848.547 62.666ZM848.424 62.74L849.334 63.154C850.147 61.3651 850.95 59.5975 851.739 57.8502L850.827 57.4389L849.916 57.0276C849.128 58.7721 848.327 60.5375 847.513 62.326L848.424 62.74ZM850.827 57.4389H851.827V57.4381H850.827H849.827V57.4389H850.827ZM850.827 57.4381L851.734 57.8586C852.867 55.4154 853.865 53.2214 854.73 51.2776L853.817 50.8708L852.903 50.464C852.043 52.397 851.049 54.5818 849.92 57.0176L850.827 57.4381ZM853.817 50.8708V51.8708H853.907V50.8708V49.8708H853.817V50.8708Z" fill="black" mask="url(#path-17-outside-1_6708_13555)"/>
<path d="M847.881 62.3916L847.848 62.4131L847.82 62.4385C845.338 64.551 842.617 66.7442 839.656 69.0176C836.737 71.2074 833.687 73.3203 830.509 75.3564H830.507L830.382 75.4375C827.216 77.4954 824.212 79.2331 821.372 80.6533C818.53 82.0744 816.35 82.7402 814.792 82.7402C814.15 82.7402 813.773 82.5701 813.547 82.3281C813.314 82.0786 813.146 81.6504 813.146 80.9355C813.146 79.7489 813.419 78.3579 813.988 76.7549L813.998 76.7266C814.624 75.0603 815.249 73.6081 815.869 72.3672L815.922 72.2617V72.2578L820.801 62.2666L826.208 51.4521H854.195L854.327 51.1553C854.332 51.1437 854.338 51.1318 854.344 51.1182C854.35 51.1049 854.357 51.0896 854.364 51.0742L854.677 50.3711H825.538L825.4 50.6475L819.831 61.7861L814.901 71.8838C814.417 72.8525 813.935 73.9391 813.453 75.1426L812.972 76.3857L812.969 76.3936C812.373 78.0725 812.065 79.5892 812.065 80.9355C812.065 81.7997 812.266 82.5411 812.756 83.0664C813.252 83.5982 813.963 83.8213 814.792 83.8213C816.608 83.8213 818.974 83.0619 821.855 81.6211C824.737 80.1801 827.775 78.4213 830.969 76.3457C834.213 74.2714 837.325 72.1174 840.305 69.8828L840.31 69.8789C843.273 67.6033 846.001 65.4056 848.492 63.2861C848.596 63.2194 848.698 63.1567 848.798 63.0986L848.937 63.0186L849.002 62.873C849.019 62.8351 849.041 62.7877 849.059 62.749L849.69 61.3594L848.359 62.1055C848.207 62.1909 848.045 62.2851 847.881 62.3916ZM847.881 62.3916L847.926 62.4609H847.925L847.881 62.3916ZM841.675 0.5C843.375 0.5 844.943 0.95531 846.363 1.86426C847.898 2.84657 848.619 4.46526 848.619 6.56934C848.619 7.56564 848.402 8.57139 847.987 9.58594L847.988 9.58691L847.858 9.89648C847.425 10.9264 846.832 12.1378 846.084 13.5264L846.04 13.6064C845.208 15.1661 844.103 17.2493 842.724 19.8555V19.8584L842.664 19.9688C841.232 22.6215 839.454 25.8289 837.335 29.5908L832.065 39.4727H857.025C858.857 39.4727 860.468 39.6484 861.85 40.0078L863.404 40.4121L861.895 40.9609C861.855 40.9753 861.814 40.9914 861.771 41.0078L861.624 41.0645L861.472 41.0254C860.224 40.713 858.743 40.5537 857.025 40.5537H830.264L830.656 39.8184L836.383 29.0811L836.388 29.0713C838.508 25.3082 840.283 22.1028 841.713 19.4551C843.144 16.7524 844.283 14.6053 845.132 13.0146V13.0127C845.87 11.6427 846.445 10.4646 846.861 9.47656L846.866 9.46582L847.025 9.09082C847.371 8.21976 847.538 7.3801 847.538 6.56934C847.538 4.72987 846.926 3.50768 845.78 2.77441C844.536 1.97818 843.171 1.58105 841.675 1.58105C840.071 1.58114 838.512 2.00603 836.99 2.86816L836.985 2.87109C835.555 3.66013 834.317 5.00726 833.289 6.96094L816.511 40.2783L816.373 40.5537H807.475C805.212 40.5537 803.475 41.3018 802.205 42.7676L802.2 42.7734C800.851 44.2782 800.26 45.5408 800.26 46.5762C800.26 47.62 800.728 48.5766 801.755 49.457C802.722 50.286 804.601 50.7686 807.555 50.7686H811.774L811.424 51.4873L802.118 70.5762C801.017 72.8302 800.018 75.3789 799.123 78.2227C798.235 81.0435 797.794 83.7499 797.794 86.3438C797.794 89.2702 798.588 91.701 800.151 93.668C801.656 95.5607 804.383 96.5811 808.509 96.5811C811.62 96.581 814.846 95.9331 818.189 94.627L818.195 94.625C821.556 93.3646 824.976 91.6821 828.452 89.5752C831.88 87.4125 835.336 84.9582 838.82 82.2129C839.157 81.9463 839.493 81.6772 839.831 81.4062L841.307 80.2227L840.609 81.9805C840.588 82.0344 840.572 82.0748 840.55 82.1318L840.501 82.2549L840.397 82.3379C840.098 82.5777 839.795 82.8214 839.491 83.0615L839.354 83.1699H839.352C835.884 85.8949 832.441 88.3379 829.021 90.4951L829 90.5078L828.985 90.5146C825.468 92.6446 821.998 94.3541 818.575 95.6377L818.273 95.751C814.93 97.0203 811.675 97.6621 808.509 97.6621C804.247 97.6621 801.11 96.6132 799.305 94.3418C797.568 92.1564 796.713 89.4776 796.713 86.3438C796.713 83.6263 797.174 80.8098 798.091 77.8975C798.999 75.0117 800.017 72.4126 801.146 70.1025L810.044 51.8496H807.555C804.567 51.8496 802.335 51.3787 801.051 50.2783C799.837 49.238 799.179 47.9995 799.179 46.5762C799.179 45.1424 799.982 43.6277 801.395 42.0518C802.898 40.3207 804.949 39.4727 807.475 39.4727H815.707L832.274 6.57324V6.56641L832.332 6.45703C833.361 4.50143 834.63 3.03445 836.155 2.10254L836.165 2.09668L836.454 1.92969L836.459 1.92676C838.13 0.980377 839.871 0.500082 841.675 0.5Z" fill="black" stroke="black"/>
</svg>
