<svg width="177" height="40" viewBox="0 0 177 40" fill="none" xmlns="http://www.w3.org/2000/svg">
<g clip-path="url(#clip0_6553_6989)">
<path d="M0.02 9.96999H6.31V12.1C7.61 10.36 9.59 9.48999 12.25 9.48999C14.21 9.48999 15.95 9.95999 17.48 10.89C19.01 11.82 20.2 13.11 21.05 14.76C21.9 16.41 22.32 18.27 22.32 20.35C22.32 22.42 21.89 24.29 21.04 25.93C20.19 27.58 19 28.87 17.47 29.8C15.94 30.73 14.19 31.19 12.24 31.19C9.58 31.19 7.6 30.31 6.3 28.57V39.32H0L0.02 9.96999ZM14.82 24.28C15.72 23.26 16.17 21.94 16.17 20.34C16.17 18.74 15.72 17.42 14.83 16.4C13.93 15.37 12.75 14.86 11.26 14.86C9.77 14.86 8.5 15.37 7.58 16.4C6.66 17.42 6.2 18.74 6.2 20.34C6.2 21.94 6.66 23.26 7.58 24.28C8.5 25.31 9.72 25.82 11.26 25.82C12.74 25.82 13.94 25.31 14.83 24.28H14.82Z" fill="#00B0EB"/>
<path d="M29.7702 29.8C28.2402 28.87 27.0502 27.58 26.2002 25.93C25.3502 24.28 24.9302 22.42 24.9302 20.34C24.9302 18.26 25.3602 16.4 26.2102 14.76C27.0602 13.11 28.2502 11.82 29.7802 10.89C31.3102 9.96 33.0602 9.5 35.0102 9.5C37.6702 9.5 39.6502 10.38 40.9502 12.12V10H47.2402V30.72H40.9302V28.6C39.6302 30.34 37.6502 31.21 34.9902 31.21C33.0302 31.21 31.2902 30.74 29.7602 29.81L29.7702 29.8ZM39.6802 24.29C40.6002 23.27 41.0602 21.95 41.0602 20.35C41.0602 18.75 40.6002 17.43 39.6802 16.41C38.7602 15.38 37.5402 14.87 36.0002 14.87C34.5202 14.87 33.3202 15.38 32.4302 16.41C31.5302 17.43 31.0802 18.75 31.0802 20.35C31.0802 21.95 31.5302 23.27 32.4202 24.29C33.3102 25.32 34.5002 25.83 35.9902 25.83C37.5202 25.83 38.7502 25.32 39.6702 24.29H39.6802Z" fill="#00B0EB"/>
<path d="M57.8998 1.1C58.6298 1.83 58.9898 2.75 58.9898 3.86C58.9898 4.97 58.6198 5.89 57.8898 6.62C57.1598 7.35 56.2398 7.71 55.1298 7.71C54.0198 7.71 53.0998 7.34 52.3698 6.61C51.6398 5.88 51.2798 4.96 51.2798 3.85C51.2798 2.74 51.6498 1.82 52.3798 1.09C53.1198 0.36 54.0298 0 55.1398 0C56.2498 0 57.1698 0.37 57.8998 1.1ZM58.2698 30.8H51.9798L51.9898 10.01H58.2798L58.2698 30.8Z" fill="#00B0EB"/>
<path d="M63.02 10.01H69.31V12.14C70.61 10.4 72.59 9.53003 75.25 9.53003C77.21 9.53003 78.95 10 80.48 10.93C82.01 11.86 83.2 13.15 84.05 14.8C84.9 16.45 85.32 18.31 85.32 20.39C85.32 22.46 84.89 24.33 84.04 25.97C83.19 27.62 82 28.91 80.47 29.84C78.94 30.77 77.19 31.23 75.24 31.23C72.58 31.23 70.6 30.35 69.3 28.61V39.36H63L63.02 10.02V10.01ZM77.82 24.32C78.72 23.3 79.17 21.98 79.17 20.38C79.17 18.78 78.72 17.46 77.83 16.44C76.93 15.41 75.75 14.9 74.26 14.9C72.77 14.9 71.5 15.41 70.58 16.44C69.66 17.46 69.2 18.78 69.2 20.38C69.2 21.98 69.66 23.3 70.58 24.32C71.5 25.35 72.72 25.86 74.26 25.86C75.74 25.86 76.94 25.35 77.83 24.32H77.82Z" fill="#00B0EB"/>
<path d="M101.23 15.4499H97.1302L97.1202 30.7599H90.8302L90.8402 15.4499H86.7402V10.0399H90.8402V3.88989H97.1302V10.0499H101.23V15.4599V15.4499Z" fill="#00B0EB"/>
<path d="M104.17 10.0401H110.46V12.1701C111.76 10.4301 113.69 9.56006 116.26 9.56006C117.39 9.56006 118.3 9.68006 118.98 9.92006L119.05 15.8201C118.15 15.3501 117.08 15.1101 115.83 15.1101C114.16 15.1101 112.84 15.5601 111.89 16.4501C110.93 17.3501 110.46 18.5801 110.46 20.1601V30.7701H104.16V10.0401H104.17Z" fill="#00B0EB"/>
<path d="M125.46 29.8701C123.82 28.9401 122.54 27.6501 121.63 26.0001C120.71 24.3501 120.25 22.4901 120.26 20.4101C120.26 18.3401 120.72 16.4701 121.64 14.8301C122.56 13.1801 123.84 11.8901 125.48 10.9601C127.12 10.0301 128.97 9.57007 131.05 9.57007C133.13 9.57007 134.98 10.0401 136.62 10.9701C138.26 11.9001 139.54 13.1901 140.45 14.8401C141.37 16.4901 141.83 18.3501 141.82 20.4301C141.82 21.1101 141.77 21.7901 141.68 22.4501H126.51C126.74 23.6401 127.26 24.5701 128.06 25.2301C128.86 25.8901 129.85 26.2201 131.03 26.2201C131.93 26.2201 132.72 26.0701 133.42 25.7801C134.12 25.4901 134.59 25.0901 134.85 24.6001H141.18C140.83 25.9201 140.16 27.0801 139.2 28.0901C138.23 29.0901 137.04 29.8701 135.63 30.4401C134.22 31.0001 132.68 31.2901 131.03 31.2901C128.96 31.2901 127.1 30.8201 125.46 29.8901V29.8701ZM135.66 18.3701C135.4 17.1201 134.87 16.1701 134.07 15.5201C133.27 14.8701 132.26 14.5501 131.03 14.5501C129.8 14.5501 128.8 14.8701 128.02 15.5201C127.24 16.1701 126.72 17.1201 126.46 18.3601H135.65L135.66 18.3701Z" fill="#00B0EB"/>
<path d="M149.67 29.8901C148.03 28.9601 146.75 27.6701 145.84 26.0201C144.92 24.3701 144.46 22.5101 144.47 20.4301C144.47 18.3601 144.93 16.4901 145.85 14.8501C146.77 13.2001 148.05 11.9101 149.69 10.9801C151.33 10.0501 153.18 9.59009 155.26 9.59009C157.33 9.59009 159.19 10.0601 160.83 10.9901C162.47 11.9201 163.75 13.2101 164.66 14.8601C165.58 16.5101 166.04 18.3701 166.03 20.4501C166.03 21.1301 165.98 21.8101 165.89 22.4701H150.72C150.95 23.6601 151.47 24.5901 152.27 25.2501C153.07 25.9101 154.06 26.2401 155.24 26.2401C156.14 26.2401 156.93 26.0901 157.63 25.8001C158.33 25.5101 158.8 25.1101 159.06 24.6201H165.39C165.04 25.9401 164.37 27.1001 163.41 28.1101C162.44 29.1101 161.25 29.8901 159.84 30.4601C158.43 31.0201 156.89 31.3101 155.24 31.3101C153.17 31.3101 151.31 30.8401 149.67 29.9101V29.8901ZM159.88 18.3901C159.62 17.1401 159.09 16.1901 158.29 15.5401C157.49 14.8901 156.48 14.5701 155.25 14.5701C154.02 14.5701 153.02 14.8901 152.24 15.5401C151.46 16.1901 150.94 17.1401 150.68 18.3801H159.87L159.88 18.3901Z" fill="#00B0EB"/>
<path d="M175.08 25.03C175.74 25.7 176.07 26.55 176.07 27.56C176.07 28.57 175.74 29.42 175.08 30.09C174.42 30.76 173.58 31.1 172.57 31.1C171.56 31.1 170.71 30.76 170.04 30.09C169.37 29.42 169.03 28.57 169.03 27.56C169.03 26.55 169.37 25.7 170.04 25.03C170.71 24.36 171.55 24.02 172.57 24.02C173.58 24.02 174.42 24.36 175.08 25.03Z" fill="#00B0EB"/>
</g>
<defs>
<clipPath id="clip0_6553_6989">
<rect width="176.07" height="39.36" fill="white"/>
</clipPath>
</defs>
</svg>
